<svg id="Layer_1" data-name="Layer 1" xmlns="http://www.w3.org/2000/svg" viewBox="0 0 1203.84 345.82"><defs><style>.cls-1{fill:#e5e5e5;}</style></defs><title>blogs</title><path class="cls-1" d="M322.4,329.72a1.22,1.22,0,0,1-.46-.09l-.92-.35a1.24,1.24,0,0,1-.61-.52,217.66,217.66,0,0,0-25.3-34.84c-.69-.77-2.52-2.83-1.58-4.95a5,5,0,0,1,2.32-2.14l8.21-4.57a1.27,1.27,0,0,1,1.47.16,94.77,94.77,0,0,1,21.21,28.39c.8,1.63,1.35,3,1.83,4.28a20.66,20.66,0,0,0,4,7.11,1.14,1.14,0,0,1,.24,1.1,1.23,1.23,0,0,1-.83.8,11.56,11.56,0,0,0-4.12,2.54,13.53,13.53,0,0,1-5.17,3A1.24,1.24,0,0,1,322.4,329.72Zm0-2.48.11,0a12.15,12.15,0,0,0,3.83-2.44,18.26,18.26,0,0,1,3.4-2.38,23.88,23.88,0,0,1-3.43-6.54c-.49-1.26-1-2.56-1.75-4.11a92.29,92.29,0,0,0-20-27.06l-7.4,4.13a3,3,0,0,0-1.29,1c-.23.52.16,1.33,1.19,2.49A219.35,219.35,0,0,1,322.35,327.24Z" transform="translate(-29.16 -3)"/><path class="cls-1" d="M333.42,339.88a1.26,1.26,0,0,1-.94-.41A47.94,47.94,0,0,0,321.05,330a1.15,1.15,0,0,1-.39-1.63,1.26,1.26,0,0,1,1.7-.38,50.8,50.8,0,0,1,8.36,6.24,25.82,25.82,0,0,1,.27-11.76,1.23,1.23,0,0,1,1.49-.87,1.18,1.18,0,0,1,.9,1.44,23.69,23.69,0,0,0,1.18,15.22,1.16,1.16,0,0,1-.5,1.46A1.23,1.23,0,0,1,333.42,339.88Z" transform="translate(-29.16 -3)"/><path class="cls-1" d="M294.33,290.52a1.26,1.26,0,0,1-.89-.36,10.72,10.72,0,0,1-2.86-5,3.46,3.46,0,0,1,0-2,4,4,0,0,1,2.31-2l3.65-1.65c.92-.42,2.64-1.19,4.25-.43a4.63,4.63,0,0,1,1.8,1.73l.33.44a1.31,1.31,0,0,0,.7.52,1.22,1.22,0,0,1,1.62.58,1.16,1.16,0,0,1-.61,1.57,3.17,3.17,0,0,1-3.68-1.25c-.14-.17-.27-.35-.4-.54a2.9,2.9,0,0,0-.85-.93c-.48-.23-1.34.1-2.11.45L294,283.22c-.31.14-1,.43-1.05.7a1.56,1.56,0,0,0,.06.7,8.39,8.39,0,0,0,2.23,3.89,1.14,1.14,0,0,1,0,1.67A1.23,1.23,0,0,1,294.33,290.52Z" transform="translate(-29.16 -3)"/><path class="cls-1" d="M328,334.57a1.23,1.23,0,0,1-.79-.28,1.14,1.14,0,0,1-.16-1.66l2.67-3.09a1.27,1.27,0,0,1,1.74-.15,1.16,1.16,0,0,1,.16,1.67L329,334.14A1.24,1.24,0,0,1,328,334.57Z" transform="translate(-29.16 -3)"/><path class="cls-1" d="M324.76,328.24a1.24,1.24,0,0,1-1-.44c-3.71-4.4-6.47-9.5-9.14-14.43-3.34-6.15-6.49-12-11.35-16.66l-1.1-1c-2.3-2.14-4.9-4.57-5.34-7.9a1.2,1.2,0,0,1,1.07-1.33,1.23,1.23,0,0,1,1.38,1c.33,2.51,2.51,4.54,4.61,6.51.38.35.76.7,1.13,1.06,5.13,4.95,8.51,11.2,11.79,17.24,2.61,4.83,5.31,9.81,8.86,14a1.16,1.16,0,0,1-.18,1.67A1.23,1.23,0,0,1,324.76,328.24Z" transform="translate(-29.16 -3)"/><path class="cls-1" d="M328.22,325.6a1.24,1.24,0,0,1-1.07-.59c-3.48-5.67-7.22-11.33-10.84-16.8l-14.8-22.38a1.16,1.16,0,0,1,.38-1.63,1.27,1.27,0,0,1,1.71.37l14.76,22.32c3.66,5.54,7.42,11.22,10.92,16.92a1.16,1.16,0,0,1-.44,1.62A1.26,1.26,0,0,1,328.22,325.6Z" transform="translate(-29.16 -3)"/><path class="cls-1" d="M783.7,325.91a.92.92,0,0,1,0-.29l.19-.58a.83.83,0,0,1,.32-.4,143,143,0,0,0,21.92-17.13c.49-.46,1.77-1.68,3.22-1.21a3.23,3.23,0,0,1,1.53,1.32l3.43,4.8a.74.74,0,0,1,0,.91,62.3,62.3,0,0,1-17.84,14.33c-1.05.57-2,1-2.76,1.32a13.85,13.85,0,0,0-4.52,2.82.81.81,0,0,1-.72.19.76.76,0,0,1-.57-.47,7.38,7.38,0,0,0-1.88-2.4,8.09,8.09,0,0,1-2.27-3A.67.67,0,0,1,783.7,325.91Zm1.65-.15,0,.07a7.69,7.69,0,0,0,1.8,2.23,10.94,10.94,0,0,1,1.74,2,16.26,16.26,0,0,1,4.18-2.41c.81-.36,1.65-.73,2.65-1.27a60.91,60.91,0,0,0,17-13.53l-3.09-4.33c-.26-.36-.49-.66-.74-.74s-.88.16-1.59.84A145.27,145.27,0,0,1,785.35,325.76Z" transform="translate(-29.16 -3)"/><path class="cls-1" d="M777.48,333.13a.72.72,0,0,1,.23-.59,30,30,0,0,0,5.75-7.45.82.82,0,0,1,1.07-.32.76.76,0,0,1,.33,1,30.91,30.91,0,0,1-3.75,5.41,18.81,18.81,0,0,1,7.83-.4.75.75,0,0,1,.64.88.77.77,0,0,1-.91.61,17,17,0,0,0-10,1.45.8.8,0,0,1-1-.23A.73.73,0,0,1,777.48,333.13Z" transform="translate(-29.16 -3)"/><path class="cls-1" d="M808.4,306.86a.73.73,0,0,1,.19-.55,7.15,7.15,0,0,1,3.19-2,2.52,2.52,0,0,1,1.36-.09,2.6,2.6,0,0,1,1.46,1.32l1.27,2.15a2.91,2.91,0,0,1,.49,2.58,3,3,0,0,1-1.06,1.19l-.28.22a.81.81,0,0,0-.32.45.72.72,0,0,1-.3,1,.81.81,0,0,1-1.08-.3,1.87,1.87,0,0,1,.66-2.31l.34-.27a1.94,1.94,0,0,0,.58-.56c.12-.31-.14-.82-.4-1.27l-1.28-2.15c-.1-.19-.33-.56-.5-.61a1.07,1.07,0,0,0-.47.07,5.57,5.57,0,0,0-2.47,1.55.82.82,0,0,1-1.12.06A.71.71,0,0,1,808.4,306.86Z" transform="translate(-29.16 -3)"/><path class="cls-1" d="M780.76,329.58a.71.71,0,0,1,.14-.5.8.8,0,0,1,1.1-.17l2.17,1.48a.74.74,0,0,1,.19,1.06.81.81,0,0,1-1.1.18l-2.18-1.49A.76.76,0,0,1,780.76,329.58Z" transform="translate(-29.16 -3)"/><path class="cls-1" d="M784.8,327.28a.71.71,0,0,1,.25-.61,56.35,56.35,0,0,1,9.14-6.28c3.93-2.33,7.64-4.54,10.53-7.74l.63-.72c1.31-1.5,2.8-3.21,5-3.64a.79.79,0,0,1,.93.59.76.76,0,0,1-.62.89c-1.65.32-2.9,1.75-4.1,3.13-.22.25-.43.5-.65.74-3,3.38-7,5.75-10.89,8a56,56,0,0,0-8.9,6.09.81.81,0,0,1-1.11,0A.72.72,0,0,1,784.8,327.28Z" transform="translate(-29.16 -3)"/><path class="cls-1" d="M786.72,329.27a.75.75,0,0,1,.34-.68c3.6-2.4,7.18-5,10.64-7.44L811.85,311a.81.81,0,0,1,1.1.15.74.74,0,0,1-.16,1.06l-14.12,10.1c-3.5,2.5-7.09,5.07-10.71,7.48a.8.8,0,0,1-1.1-.19A.73.73,0,0,1,786.72,329.27Z" transform="translate(-29.16 -3)"/><path class="cls-1" d="M504.92,34.73a1,1,0,0,1,.3.05l.58.23a.75.75,0,0,1,.4.32,138,138,0,0,0,16.37,22.13c.44.49,1.63,1.8,1,3.16A3.26,3.26,0,0,1,522.14,62l-5.22,3a.83.83,0,0,1-.95-.1,60.75,60.75,0,0,1-13.72-18c-.52-1-.87-1.94-1.19-2.73a13.29,13.29,0,0,0-2.62-4.52.7.7,0,0,1-.16-.7.74.74,0,0,1,.52-.51,7.58,7.58,0,0,0,2.62-1.65,8.46,8.46,0,0,1,3.29-2Zm.05,1.58-.07,0a7.74,7.74,0,0,0-2.44,1.58,11.84,11.84,0,0,1-2.16,1.54,15.16,15.16,0,0,1,2.23,4.16c.32.8.65,1.63,1.15,2.62a59.17,59.17,0,0,0,12.94,17.18l4.71-2.68a1.93,1.93,0,0,0,.82-.65c.14-.33-.11-.85-.77-1.59A139,139,0,0,1,505,36.31Z" transform="translate(-29.16 -3)"/><path class="cls-1" d="M497.82,28.29a.81.81,0,0,1,.6.26,30.72,30.72,0,0,0,7.36,6,.74.74,0,0,1,.26,1,.8.8,0,0,1-1.08.25,32.33,32.33,0,0,1-5.38-3.94,16.47,16.47,0,0,1-.11,7.52.79.79,0,0,1-1,.56.76.76,0,0,1-.58-.92,15.12,15.12,0,0,0-.84-9.72.73.73,0,0,1,.31-.93A.78.78,0,0,1,497.82,28.29Z" transform="translate(-29.16 -3)"/><path class="cls-1" d="M523.09,59.63a.85.85,0,0,1,.57.23A6.85,6.85,0,0,1,525.51,63a2.13,2.13,0,0,1,0,1.3,2.55,2.55,0,0,1-1.46,1.32l-2.32,1.07A3.26,3.26,0,0,1,519,67a3.07,3.07,0,0,1-1.16-1.09l-.21-.29a.92.92,0,0,0-.45-.33.78.78,0,0,1-1-.35.75.75,0,0,1,.38-1,2,2,0,0,1,2.36.78c.09.11.17.23.26.35a1.85,1.85,0,0,0,.54.59c.31.14.86-.07,1.35-.3l2.32-1.08c.2-.09.6-.28.66-.44a.84.84,0,0,0,0-.45,5.27,5.27,0,0,0-1.45-2.48.74.74,0,0,1,0-1.07A.87.87,0,0,1,523.09,59.63Z" transform="translate(-29.16 -3)"/><path class="cls-1" d="M501.3,31.66a.86.86,0,0,1,.5.17.74.74,0,0,1,.11,1.07l-1.69,2a.81.81,0,0,1-1.11.11.75.75,0,0,1-.11-1.07l1.69-2A.81.81,0,0,1,501.3,31.66Z" transform="translate(-29.16 -3)"/><path class="cls-1" d="M503.42,35.69A.79.79,0,0,1,504,36,54,54,0,0,1,510,45.14c2.17,3.91,4.22,7.61,7.35,10.58l.71.66c1.48,1.36,3.16,2.89,3.46,5a.77.77,0,0,1-.68.85.78.78,0,0,1-.88-.65c-.23-1.61-1.63-2.89-3-4.14l-.73-.67c-3.3-3.13-5.5-7.11-7.63-10.95a52.68,52.68,0,0,0-5.75-8.93.72.72,0,0,1,.11-1.06A.75.75,0,0,1,503.42,35.69Z" transform="translate(-29.16 -3)"/><path class="cls-1" d="M501.23,37.4a.76.76,0,0,1,.68.36c2.26,3.61,4.68,7.21,7,10.69l9.58,14.22a.72.72,0,0,1-.23,1,.8.8,0,0,1-1.09-.22L507.63,49.3c-2.37-3.52-4.8-7.13-7.07-10.76a.73.73,0,0,1,.27-1A.79.79,0,0,1,501.23,37.4Z" transform="translate(-29.16 -3)"/><path class="cls-1" d="M755.31,32.4a.68.68,0,0,1-.1.27l-.33.52a.75.75,0,0,1-.4.32,146.68,146.68,0,0,0-25.39,11.93c-.58.34-2.12,1.25-3.42.47a3.1,3.1,0,0,1-1.18-1.61l-2.21-5.43a.73.73,0,0,1,.26-.87,63.81,63.81,0,0,1,20.75-10.08c1.16-.33,2.14-.52,3-.69a14.37,14.37,0,0,0,5.07-1.76.83.83,0,0,1,.75,0,.75.75,0,0,1,.44.58,6.91,6.91,0,0,0,1.27,2.74,8.2,8.2,0,0,1,1.5,3.44A1.41,1.41,0,0,1,755.31,32.4Zm-1.64-.21,0-.06a7.33,7.33,0,0,0-1.23-2.57,10.91,10.91,0,0,1-1.23-2.29,16.61,16.61,0,0,1-4.64,1.44c-.88.17-1.78.35-2.88.66A62.26,62.26,0,0,0,724,38.86l2,4.89a1.83,1.83,0,0,0,.55.88c.31.19.88,0,1.75-.48A148.84,148.84,0,0,1,753.67,32.19Z" transform="translate(-29.16 -3)"/><path class="cls-1" d="M763.08,26.71a.77.77,0,0,1-.37.53,31.41,31.41,0,0,0-7.36,6,.8.8,0,0,1-1.11.08.73.73,0,0,1-.08-1.06,31.15,31.15,0,0,1,4.93-4.46,18.66,18.66,0,0,1-7.72-1.32.74.74,0,0,1-.42-1,.8.8,0,0,1,1-.4,17,17,0,0,0,10.13.77.77.77,0,0,1,1,.85Z" transform="translate(-29.16 -3)"/><path class="cls-1" d="M726.77,45.58a.71.71,0,0,1-.33.5,7.3,7.3,0,0,1-3.56,1.25,2.47,2.47,0,0,1-1.35-.21,2.51,2.51,0,0,1-1.11-1.6l-.73-2.37a2.88,2.88,0,0,1,.13-2.62,3,3,0,0,1,1.31-.93l.33-.15a.81.81,0,0,0,.41-.38.75.75,0,0,1,.54-.93.82.82,0,0,1,1,.53,1.89,1.89,0,0,1-1.19,2.11l-.39.19a1.87,1.87,0,0,0-.7.42c-.2.27-.06.82.09,1.33l.73,2.37c.06.2.19.61.36.7a1,1,0,0,0,.46,0,5.73,5.73,0,0,0,2.78-1,.81.81,0,0,1,1.1.18A.74.74,0,0,1,726.77,45.58Z" transform="translate(-29.16 -3)"/><path class="cls-1" d="M759.05,29.46a.72.72,0,0,1-.26.45.81.81,0,0,1-1.11-.06l-1.77-1.92a.73.73,0,0,1,.07-1.07.81.81,0,0,1,1.11.06l1.77,1.93A.74.74,0,0,1,759.05,29.46Z" transform="translate(-29.16 -3)"/><path class="cls-1" d="M754.57,30.83a.78.78,0,0,1-.39.54,57.83,57.83,0,0,1-10.38,4.12c-4.38,1.42-8.52,2.76-12.08,5.25l-.79.57c-1.63,1.18-3.48,2.52-5.72,2.46a.76.76,0,1,1,0-1.51c1.69,0,3.24-1.08,4.73-2.16l.81-.58c3.76-2.63,8.2-4.07,12.5-5.46a56.33,56.33,0,0,0,10.1-4,.78.78,0,0,1,1.18.77Z" transform="translate(-29.16 -3)"/><path class="cls-1" d="M753.17,28.47a.77.77,0,0,1-.49.59c-4.08,1.55-8.17,3.27-12.12,4.93l-16.17,6.78a.8.8,0,0,1-1-.39.76.76,0,0,1,.41-1l16.14-6.77c4-1.67,8.1-3.39,12.2-5a.81.81,0,0,1,1,.42A.79.79,0,0,1,753.17,28.47Z" transform="translate(-29.16 -3)"/><path class="cls-1" d="M656.37,188.63h-.14c-4-.16-7.85-.54-11.61-.9s-7.58-.73-11.47-.88a1.28,1.28,0,0,1-1-.64c-1.18-2.21-2.53-4.41-3.84-6.53A75.08,75.08,0,0,1,622,168c-3.06-7.82-2.53-15.59,1.4-20.79,2.33-3.07,5.88-5.47,10.86-7.33a34.17,34.17,0,0,1,18.57-1.91c6.67,1.33,12.34,5.25,15.18,10.47,3,5.58,3,13,0,20.44-2,5-5.12,9.52-8.1,13.9-.74,1.09-1.48,2.18-2.21,3.28a1.4,1.4,0,0,1,.29,1.86A1.82,1.82,0,0,1,656.37,188.63ZM634,184.51c3.71.17,7.36.53,10.9.87,3.38.32,6.88.66,10.41.83a1.13,1.13,0,0,1,.1-1.08c.8-1.23,1.63-2.45,2.46-3.67,2.91-4.28,5.92-8.71,7.87-13.48,2.77-6.77,2.81-13.51.11-18.47-2.51-4.6-7.55-8.06-13.5-9.26a31.77,31.77,0,0,0-17.18,1.81c-4.52,1.69-7.71,3.82-9.75,6.51-3.45,4.56-3.85,11.5-1.09,18.57a73.63,73.63,0,0,0,6.09,11.33C631.59,180.43,632.84,182.45,634,184.51Z" transform="translate(-29.16 -3)"/><path class="cls-1" d="M645.22,206.33c-2.23,0-4.45-.08-6.64-.17a9.41,9.41,0,0,1-3.42-.57c-3.29-1.39-4-5.15-4.2-8.28l-.74-10a1.24,1.24,0,0,1,2.47-.16l.73,10c.18,2.47.65,5.41,2.73,6.28a7.55,7.55,0,0,0,2.53.38,75.35,75.35,0,0,0,14.79-.41,3.22,3.22,0,0,0,1.95-.77,3.09,3.09,0,0,0,.3-1.71l0-14A1.21,1.21,0,0,1,657,185.7h0a1.21,1.21,0,0,1,1.23,1.18l0,14a5.07,5.07,0,0,1-.75,3.1,5.24,5.24,0,0,1-3.56,1.74A54.74,54.74,0,0,1,645.22,206.33Z" transform="translate(-29.16 -3)"/><path class="cls-1" d="M630.66,192.92a1.21,1.21,0,0,1-1.22-1,1.2,1.2,0,0,1,1.08-1.31,74.77,74.77,0,0,0,16.6-3.88,1.26,1.26,0,0,1,1.59.7,1.17,1.17,0,0,1-.72,1.52,77.19,77.19,0,0,1-17.18,4Z" transform="translate(-29.16 -3)"/><path class="cls-1" d="M631.81,199.5a1.24,1.24,0,0,1-.27,0,1.18,1.18,0,0,1-.93-1.41l.19-.83a1.24,1.24,0,0,1,.56-.75,48,48,0,0,1,18.56-6.29l1-.11a16.7,16.7,0,0,0,4.79-1,1.25,1.25,0,0,1,1.64.57,1.18,1.18,0,0,1-.61,1.58,18.61,18.61,0,0,1-5.54,1.21l-.94.11a45.31,45.31,0,0,0-17.13,5.7l-.09.34A1.21,1.21,0,0,1,631.81,199.5Z" transform="translate(-29.16 -3)"/><path class="cls-1" d="M633.53,204a1.21,1.21,0,0,1-1.23-1.1,1.2,1.2,0,0,1,1.15-1.26,31.64,31.64,0,0,0,9.3-2.6l11.69-4.58a1.24,1.24,0,0,1,1.61.65,1.16,1.16,0,0,1-.67,1.54l-11.7,4.59c-3,1.18-6.47,2.53-10.07,2.76Z" transform="translate(-29.16 -3)"/><path class="cls-1" d="M641.38,207.11a1.23,1.23,0,0,1-1.17-.8,1.17,1.17,0,0,1,.77-1.5,79.13,79.13,0,0,0,14.22-6.18,1.26,1.26,0,0,1,1.69.43,1.16,1.16,0,0,1-.45,1.62,81.66,81.66,0,0,1-14.67,6.37A1.32,1.32,0,0,1,641.38,207.11Z" transform="translate(-29.16 -3)"/><path class="cls-1" d="M645.94,211.94a11.64,11.64,0,0,1-10.59-6.79,1.17,1.17,0,0,1,.68-1.54,1.26,1.26,0,0,1,1.61.66,9.24,9.24,0,0,0,9.32,5.24,4.52,4.52,0,0,0,2.75-1.18A6,6,0,0,0,650.8,205a1.22,1.22,0,0,1,1.38-1,1.2,1.2,0,0,1,1.07,1.33,8.31,8.31,0,0,1-1.68,4.56,6.8,6.8,0,0,1-4.29,2A12,12,0,0,1,645.94,211.94Z" transform="translate(-29.16 -3)"/><path class="cls-1" d="M651,186.41a1.24,1.24,0,0,1-.5-.1,1.16,1.16,0,0,1-.63-1.56l4.24-9.22a16,16,0,0,0-1.23,1.24,1.27,1.27,0,0,1-1.1.4,1.23,1.23,0,0,1-1-.66,23,23,0,0,1-1.23-3,7.18,7.18,0,0,1-2.21,1.47,1.27,1.27,0,0,1-1.11,0,1.19,1.19,0,0,1-.62-.89c-.16-1.25-.34-2.51-.54-3.76a21.85,21.85,0,0,1-3.79,5.87,1.25,1.25,0,0,1-2-.2,28.63,28.63,0,0,1-1.71-3.47l-.15.33a1.26,1.26,0,0,1-1.6.62c-.65-.26-1.32-.48-2-.71a22.48,22.48,0,0,1,3.56,6.08c.3.79.52,1.6.74,2.38a17.78,17.78,0,0,0,1.18,3.34,1.17,1.17,0,0,1-.57,1.59,1.27,1.27,0,0,1-1.65-.55,19.77,19.77,0,0,1-1.34-3.77c-.22-.77-.42-1.49-.68-2.2-1.33-3.62-4.09-6.61-6.75-9.5a1.15,1.15,0,0,1,0-1.61,1.27,1.27,0,0,1,1.68-.08,13.58,13.58,0,0,0,4.45,2l1.12.36a9.76,9.76,0,0,0,.48-3.17,1.19,1.19,0,0,1,1.09-1.19,1.23,1.23,0,0,1,1.35.92,26.5,26.5,0,0,0,2.08,5.83,19.57,19.57,0,0,0,3.56-8.34,1.23,1.23,0,0,1,1.2-1,1.2,1.2,0,0,1,1.23.95c.49,2.32.9,4.67,1.24,7a4.54,4.54,0,0,0,1.09-1.63,1.25,1.25,0,0,1,1.26-.76,1.23,1.23,0,0,1,1.11,1,20.67,20.67,0,0,0,1,3.47,19.73,19.73,0,0,1,4.14-2.9,1.29,1.29,0,0,1,1.43.17,1.15,1.15,0,0,1,.29,1.35l-6.08,13.22A1.22,1.22,0,0,1,651,186.41Z" transform="translate(-29.16 -3)"/><path class="cls-1" d="M376.68,59.72l-.08,0c-2.26.88-4.55,1.62-6.75,2.33s-4.45,1.45-6.67,2.31a.8.8,0,0,1-.76-.1c-1.25-.95-2.59-1.85-3.88-2.73a47.81,47.81,0,0,1-6.63-5c-3.79-3.64-5.55-8.12-4.73-12a13.68,13.68,0,0,1,4.15-6.77,20.44,20.44,0,0,1,9.91-5.61,14.1,14.1,0,0,1,11.29,2.16c3.18,2.39,5.16,6.56,5.43,11.47a46.79,46.79,0,0,1-.85,9.77c-.13.8-.26,1.59-.37,2.38a.9.9,0,0,1,.65,1A1.08,1.08,0,0,1,376.68,59.72ZM363,62.89c2.13-.81,4.27-1.5,6.34-2.18s4-1.31,6.06-2.07a.74.74,0,0,1-.23-.63c.13-.89.27-1.78.41-2.67a45.13,45.13,0,0,0,.84-9.48c-.24-4.48-2-8.26-4.84-10.39a12.54,12.54,0,0,0-10-1.89,19,19,0,0,0-9.16,5.21,12.3,12.3,0,0,0-3.74,6c-.72,3.4.89,7.39,4.32,10.68a47.75,47.75,0,0,0,6.42,4.87C360.61,61.18,361.84,62,363,62.89Z" transform="translate(-29.16 -3)"/><path class="cls-1" d="M375.12,72.38c-1.25.55-2.52,1-3.77,1.53a5.73,5.73,0,0,1-2.07.51c-2.21,0-3.59-1.92-4.55-3.62l-3.07-5.42a.71.71,0,0,1,.31-1,.77.77,0,0,1,1,.29l3.06,5.43c.76,1.34,1.81,2.87,3.2,2.86a4.66,4.66,0,0,0,1.52-.41A45,45,0,0,0,379,68.71c.4-.26.82-.57.89-.91a1.88,1.88,0,0,0-.29-1l-3.71-7.87a.73.73,0,0,1,.38-1h0a.79.79,0,0,1,1,.37l3.7,7.86a2.51,2.51,0,0,1-1.13,3.76A31.38,31.38,0,0,1,375.12,72.38Z" transform="translate(-29.16 -3)"/><path class="cls-1" d="M363.4,68.41a.77.77,0,0,1-1-.28.72.72,0,0,1,.26-1A44.45,44.45,0,0,0,371,60.89a.78.78,0,0,1,1.07,0,.7.7,0,0,1,0,1,45.87,45.87,0,0,1-8.57,6.44Z" transform="translate(-29.16 -3)"/><path class="cls-1" d="M365.79,71.83l-.16,0a.77.77,0,0,1-.9-.57l-.11-.51a.73.73,0,0,1,.11-.56,28.34,28.34,0,0,1,8.74-8.06l.52-.3a9.87,9.87,0,0,0,2.42-1.74.78.78,0,0,1,1.07-.08.71.71,0,0,1,.08,1,11.06,11.06,0,0,1-2.79,2l-.5.29a26.88,26.88,0,0,0-8.1,7.38l.05.22A.73.73,0,0,1,365.79,71.83Z" transform="translate(-29.16 -3)"/><path class="cls-1" d="M368,74a.78.78,0,0,1-1-.32.71.71,0,0,1,.31-1,18.82,18.82,0,0,0,4.53-3.73l5.34-5.43a.8.8,0,0,1,1.08,0,.71.71,0,0,1,0,1l-5.35,5.43a20,20,0,0,1-4.91,4Z" transform="translate(-29.16 -3)"/><path class="cls-1" d="M373.17,73.76a.79.79,0,0,1-.87-.17.71.71,0,0,1,0-1,46.26,46.26,0,0,0,6.34-6.94.78.78,0,0,1,1.06-.17.71.71,0,0,1,.17,1,48.05,48.05,0,0,1-6.53,7.16A.74.74,0,0,1,373.17,73.76Z" transform="translate(-29.16 -3)"/><path class="cls-1" d="M377,75.35a7.4,7.4,0,0,1-7.74-1.22.71.71,0,0,1,0-1,.78.78,0,0,1,1.07,0,5.85,5.85,0,0,0,6.62.66,2.71,2.71,0,0,0,1.23-1.33,3.65,3.65,0,0,0-.27-2.13.73.73,0,0,1,.51-.91.77.77,0,0,1,.95.48,5,5,0,0,1,.27,3A4,4,0,0,1,377.75,75,5.75,5.75,0,0,1,377,75.35Z" transform="translate(-29.16 -3)"/><path class="cls-1" d="M373.1,59.79a.78.78,0,0,1-.31.06.75.75,0,0,1-.77-.72L372,52.92a9,9,0,0,0-.36,1,.75.75,0,0,1-.51.5.79.79,0,0,1-.71-.14,15,15,0,0,1-1.49-1.38,4.36,4.36,0,0,1-.85,1.37.79.79,0,0,1-.64.24.76.76,0,0,1-.58-.35c-.42-.66-.85-1.32-1.3-2a13.18,13.18,0,0,1-.56,4.22.77.77,0,0,1-.49.49.82.82,0,0,1-.7-.11,18.46,18.46,0,0,1-1.88-1.53c0,.08,0,.15,0,.23a.74.74,0,0,1-.74.73c-.43,0-.86,0-1.32.1a14.87,14.87,0,0,1,3.62,2.54c.37.37.71.77,1,1.15a11.14,11.14,0,0,0,1.55,1.59.71.71,0,0,1,.1,1,.79.79,0,0,1-1.07.1,12.81,12.81,0,0,1-1.75-1.79c-.33-.38-.64-.74-1-1.07a19.76,19.76,0,0,0-6.31-3.68.71.71,0,0,1-.4-.91.77.77,0,0,1,.92-.46,8.56,8.56,0,0,0,3,.06l.72-.07a6,6,0,0,0-.57-1.9.7.7,0,0,1,.29-.93.77.77,0,0,1,1,.18,17.81,17.81,0,0,0,2.72,2.77,11.83,11.83,0,0,0-.21-5.55.71.71,0,0,1,.4-.85.76.76,0,0,1,1,.23c.88,1.18,1.74,2.4,2.56,3.64a2.81,2.81,0,0,0,.18-1.18.71.71,0,0,1,.5-.73.78.78,0,0,1,.88.26,13.33,13.33,0,0,0,1.5,1.69,11.36,11.36,0,0,1,1.55-2.64.77.77,0,0,1,.84-.25.75.75,0,0,1,.53.69l.09,8.89A.73.73,0,0,1,373.1,59.79Z" transform="translate(-29.16 -3)"/><path class="cls-1" d="M1212.91,240.58l-.07-.05c-2-1.35-3.88-2.8-5.7-4.19s-3.66-2.81-5.62-4.14a.75.75,0,0,1-.32-.67c.16-1.52.23-3.09.29-4.61a46.15,46.15,0,0,1,.84-8.07c1.15-5,4.13-8.88,8-10.3a14.9,14.9,0,0,1,8.17-.3,20.53,20.53,0,0,1,10.27,5,12.82,12.82,0,0,1,4.2,10.3c-.37,3.86-3,7.71-7.12,10.57a50.88,50.88,0,0,1-9,4.59l-2.29,1a.88.88,0,0,1-.5,1.06A1.15,1.15,0,0,1,1212.91,240.58Zm-10.15-9.33c1.86,1.28,3.62,2.64,5.33,3.95s3.33,2.55,5.09,3.78a.74.74,0,0,1,.43-.53c.85-.38,1.7-.74,2.56-1.1a49.82,49.82,0,0,0,8.77-4.45c3.8-2.61,6.16-6.08,6.5-9.52a11.38,11.38,0,0,0-3.76-9.12,19.05,19.05,0,0,0-9.51-4.59,13.35,13.35,0,0,0-7.31.24c-3.37,1.25-6,4.71-7,9.25A43.68,43.68,0,0,0,1203,227C1203,228.38,1202.89,229.82,1202.76,231.25Z" transform="translate(-29.16 -3)"/><path class="cls-1" d="M1201,246.15c-1.16-.71-2.27-1.47-3.38-2.22a5.66,5.66,0,0,1-1.57-1.39c-1.21-1.78-.25-3.95.72-5.64l3.11-5.4a.77.77,0,0,1,1-.29.72.72,0,0,1,.3,1l-3.11,5.41c-.77,1.33-1.55,3-.78,4.12a4.37,4.37,0,0,0,1.18,1,44.51,44.51,0,0,0,7.79,4.54,2,2,0,0,0,1.28.23,2,2,0,0,0,.75-.79l4.9-7.25a.77.77,0,0,1,1-.21h0a.71.71,0,0,1,.23,1l-4.9,7.23a3.16,3.16,0,0,1-1.47,1.36,3.26,3.26,0,0,1-2.44-.24A31.72,31.72,0,0,1,1201,246.15Z" transform="translate(-29.16 -3)"/><path class="cls-1" d="M1198.12,234.54a.72.72,0,0,1-.27-.94.76.76,0,0,1,1-.33,46.11,46.11,0,0,0,9.94,3.33.73.73,0,0,1,.58.87.77.77,0,0,1-.9.56,47.1,47.1,0,0,1-10.28-3.45Z" transform="translate(-29.16 -3)"/><path class="cls-1" d="M1196.42,238.31a.69.69,0,0,1-.12-1.13l.39-.37a.77.77,0,0,1,.55-.21,29.76,29.76,0,0,1,11.79,2.71l.54.25a9.77,9.77,0,0,0,2.83,1,.73.73,0,0,1,.64.83.76.76,0,0,1-.86.62,11.39,11.39,0,0,1-3.29-1.16l-.52-.24a28.15,28.15,0,0,0-10.85-2.56l-.16.15A.78.78,0,0,1,1196.42,238.31Z" transform="translate(-29.16 -3)"/><path class="cls-1" d="M1195.72,241.21a.72.72,0,0,1-.25-1,.78.78,0,0,1,1-.28,19.27,19.27,0,0,0,5.71,1.64l7.65,1.39a.73.73,0,0,1,.6.85.74.74,0,0,1-.88.58l-7.65-1.38a20.88,20.88,0,0,1-6.17-1.81Z" transform="translate(-29.16 -3)"/><path class="cls-1" d="M1198.71,245.32a.72.72,0,0,1-.33-.79.77.77,0,0,1,.93-.53,49.82,49.82,0,0,0,9.5,1.38.74.74,0,0,1,.73.76.75.75,0,0,1-.8.69,50.57,50.57,0,0,1-9.81-1.42A.54.54,0,0,1,1198.71,245.32Z" transform="translate(-29.16 -3)"/><path class="cls-1" d="M1199.38,249.28a6.76,6.76,0,0,1-3.11-6.91.77.77,0,0,1,.89-.58.73.73,0,0,1,.6.86,5.36,5.36,0,0,0,3,5.7,2.8,2.8,0,0,0,1.83.28,4,4,0,0,0,1.72-1.37.79.79,0,0,1,1.07-.08.71.71,0,0,1,.09,1A5.36,5.36,0,0,1,1203,250a4.27,4.27,0,0,1-2.9-.36A5.12,5.12,0,0,1,1199.38,249.28Z" transform="translate(-29.16 -3)"/><path class="cls-1" d="M1210.92,237.72a1.1,1.1,0,0,1-.22-.21.71.71,0,0,1,.22-1l5.41-3.41a9.77,9.77,0,0,0-1.07.25.8.8,0,0,1-.71-.15.73.73,0,0,1-.26-.65,14.56,14.56,0,0,1,.41-1.94,4.87,4.87,0,0,1-1.66.05.75.75,0,0,1-.55-.39.66.66,0,0,1,0-.65c.35-.7.7-1.41,1-2.12a14.57,14.57,0,0,1-4,1.82.81.81,0,0,1-.69-.13.72.72,0,0,1-.28-.62,18.71,18.71,0,0,1,.33-2.35l-.19.13a.79.79,0,0,1-1.05-.2c-.24-.34-.51-.67-.79-1a13.82,13.82,0,0,1-.28,4.29c-.13.5-.29,1-.45,1.46a11.59,11.59,0,0,0-.56,2.11.76.76,0,0,1-.84.64.74.74,0,0,1-.67-.81,13.09,13.09,0,0,1,.62-2.39c.16-.46.31-.9.42-1.35a18,18,0,0,0-.18-7.09.74.74,0,0,1,.59-.82.78.78,0,0,1,.89.5,7.81,7.81,0,0,0,1.6,2.49l.44.55a6.63,6.63,0,0,0,1.36-1.49.78.78,0,0,1,1-.27.73.73,0,0,1,.38.91,15.79,15.79,0,0,0-1,3.69,12.84,12.84,0,0,0,4.75-3.17.77.77,0,0,1,1-.13.71.71,0,0,1,.31.89c-.56,1.35-1.16,2.7-1.81,4a3,3,0,0,0,1.13-.49.8.8,0,0,1,.92,0,.72.72,0,0,1,.24.85,12.28,12.28,0,0,0-.68,2.13,12.31,12.31,0,0,1,3.15-.17.74.74,0,0,1,.68.54.7.7,0,0,1-.32.79l-7.75,4.89A.8.8,0,0,1,1210.92,237.72Z" transform="translate(-29.16 -3)"/><path class="cls-1" d="M196.5,155l-.27,0c-3.18-.7-5.16-3.07-7.07-5.36a25.31,25.31,0,0,0-2.94-3.13,23.73,23.73,0,0,0-6.55-3.41c-3.09-1.24-6.29-2.52-8.5-5.16-2.54-3-3-7-3.15-10.48-.09-2.36.06-5,1.88-6.87s4.89-2.16,7.51-2.18c5.33-.05,8.85,1.14,10.54,3.53a40.77,40.77,0,0,1,5.62-7.38,11.69,11.69,0,0,1,4.61-3.61c3.68-1.31,7.66.85,10,3.57A16.07,16.07,0,0,1,210.64,131a31,31,0,0,1-5.32,7.63l-1.09,1.29c-2.81,3.34-6.53,8.42-6.5,13.95a1.14,1.14,0,0,1-.46.94A1.26,1.26,0,0,1,196.5,155Zm-18.78-34.25h-.29c-2.2,0-4.46.15-5.73,1.44s-1.29,3.28-1.21,5.15c.12,3.09.52,6.59,2.61,9.09,1.81,2.16,4.58,3.28,7.53,4.45a19.82,19.82,0,0,1,10.45,7.25,15.29,15.29,0,0,0,4.27,4c.6-5.59,4.19-10.48,7-13.78.36-.43.73-.87,1.11-1.3a28.84,28.84,0,0,0,4.94-7,13.72,13.72,0,0,0-2.13-14c-1.75-2.06-4.65-3.74-7.19-2.84a9.65,9.65,0,0,0-3.6,2.93c-2.36,2.65-4.81,5.4-6.1,8.64a1.25,1.25,0,0,1-1.59.68,18.09,18.09,0,0,1-1.4-1.33C185.52,121.88,182.62,120.77,177.72,120.77Z" transform="translate(-29.16 -3)"/><path class="cls-1" d="M179.92,138.49h-.21a9.73,9.73,0,0,1-6.81-4.61,9,9,0,0,1-.51-8,1.27,1.27,0,0,1,1.61-.65,1.18,1.18,0,0,1,.68,1.55,6.73,6.73,0,0,0,.38,5.93,7.31,7.31,0,0,0,5.06,3.43,1.18,1.18,0,0,1,1,1.36A1.22,1.22,0,0,1,179.92,138.49Z" transform="translate(-29.16 -3)"/><path class="cls-1" d="M177.84,124.43H176.6a1.19,1.19,0,1,1,0-2.37h1.24a1.19,1.19,0,1,1,0,2.37Z" transform="translate(-29.16 -3)"/><path class="cls-1" d="M1210,78.08a1.24,1.24,0,0,1-.27,0c-3.18-.69-5.16-3.06-7.07-5.35a24.62,24.62,0,0,0-2.94-3.13,23.54,23.54,0,0,0-6.54-3.41c-3.1-1.24-6.3-2.53-8.5-5.16-2.54-3-3-7-3.16-10.49-.09-2.35.06-5,1.88-6.86s4.9-2.16,7.51-2.18c5.33-.06,8.85,1.14,10.55,3.53a40.38,40.38,0,0,1,5.61-7.38,11.71,11.71,0,0,1,4.61-3.62c3.69-1.3,7.66.85,10,3.57A16.07,16.07,0,0,1,1224.14,54a31,31,0,0,1-5.32,7.63l-1.09,1.29c-2.8,3.34-6.53,8.42-6.49,14a1.16,1.16,0,0,1-.47.93A1.26,1.26,0,0,1,1210,78.08Zm-18.77-34.25h-.3c-2.2,0-4.46.15-5.73,1.45s-1.28,3.28-1.21,5.14c.12,3.1.52,6.6,2.61,9.1,1.81,2.16,4.59,3.27,7.53,4.45a26.11,26.11,0,0,1,7.21,3.81,26.26,26.26,0,0,1,3.24,3.44,15.39,15.39,0,0,0,4.27,4c.6-5.59,4.19-10.47,7-13.77.36-.44.74-.87,1.11-1.31a28.61,28.61,0,0,0,4.94-7,13.69,13.69,0,0,0-2.13-14c-1.75-2.07-4.65-3.75-7.19-2.85a9.66,9.66,0,0,0-3.59,2.94c-2.37,2.65-4.82,5.39-6.11,8.63a1.25,1.25,0,0,1-1.59.69,1.23,1.23,0,0,1-.69-.63,1.2,1.2,0,0,1-.71-.7C1199,45,1196.13,43.83,1191.23,43.83Z" transform="translate(-29.16 -3)"/><path class="cls-1" d="M1193.42,61.56l-.2,0a9.7,9.7,0,0,1-6.82-4.61,9,9,0,0,1-.51-8,1.25,1.25,0,0,1,1.61-.65,1.17,1.17,0,0,1,.68,1.54,6.79,6.79,0,0,0,.38,5.94,7.31,7.31,0,0,0,5.06,3.43,1.18,1.18,0,0,1,1,1.36A1.23,1.23,0,0,1,1193.42,61.56Z" transform="translate(-29.16 -3)"/><path class="cls-1" d="M1191.34,47.5h-1.24a1.19,1.19,0,1,1,0-2.37h1.24a1.19,1.19,0,1,1,0,2.37Z" transform="translate(-29.16 -3)"/><path class="cls-1" d="M859.61,285.2l-.17,0c-1.9-.42-3.09-1.84-4.24-3.21a10.44,10.44,0,0,0-5.69-3.93,12.06,12.06,0,0,1-5.1-3.09c-1.52-1.83-1.81-4.21-1.89-6.3a5.32,5.32,0,0,1,1.13-4.11c1.16-1.18,2.93-1.3,4.5-1.31q4.8,0,6.33,2.12a24.38,24.38,0,0,1,3.37-4.43,7,7,0,0,1,2.76-2.17c2.21-.78,4.6.51,6,2.14a9.64,9.64,0,0,1,1.5,9.87,18.72,18.72,0,0,1-3.19,4.58l-.66.77c-1.68,2-3.91,5.05-3.89,8.37a.7.7,0,0,1-.28.56A.78.78,0,0,1,859.61,285.2Zm-11.27-20.55h-.18c-1.32,0-2.67.09-3.44.86a4.2,4.2,0,0,0-.72,3.09c.07,1.86.31,4,1.57,5.46,1.08,1.3,2.75,2,4.51,2.67a15.51,15.51,0,0,1,4.33,2.29,15.69,15.69,0,0,1,1.94,2.06,9.17,9.17,0,0,0,2.57,2.4c.35-3.35,2.51-6.29,4.17-8.26l.67-.79a17.28,17.28,0,0,0,3-4.22,8.2,8.2,0,0,0-1.28-8.42c-1.05-1.24-2.79-2.25-4.31-1.71a5.9,5.9,0,0,0-2.16,1.76,18.43,18.43,0,0,0-3.66,5.18.74.74,0,0,1-.95.41.7.7,0,0,1-.42-.37.74.74,0,0,1-.43-.42C853,265.32,851.28,264.65,848.34,264.65Z" transform="translate(-29.16 -3)"/><path class="cls-1" d="M849.66,275.28h-.13a5.8,5.8,0,0,1-4.08-2.76,5.39,5.39,0,0,1-.31-4.79.75.75,0,0,1,1-.39.7.7,0,0,1,.4.92,4.06,4.06,0,0,0,.23,3.56,4.37,4.37,0,0,0,3,2.06.71.71,0,0,1-.12,1.41Z" transform="translate(-29.16 -3)"/><path class="cls-1" d="M848.41,266.85h-.74a.71.71,0,1,1,0-1.42h.74a.71.71,0,1,1,0,1.42Z" transform="translate(-29.16 -3)"/><path class="cls-1" d="M393.61,326.29h-.16c-1.91-.42-3.1-1.84-4.25-3.22a14.39,14.39,0,0,0-1.76-1.87,14.14,14.14,0,0,0-3.92-2.05,12.18,12.18,0,0,1-5.1-3.1c-1.53-1.82-1.82-4.2-1.9-6.29a5.36,5.36,0,0,1,1.13-4.11c1.17-1.19,2.94-1.3,4.51-1.31,3.2,0,5.31.68,6.32,2.11a24.38,24.38,0,0,1,3.37-4.43,7,7,0,0,1,2.77-2.16c2.21-.79,4.59.51,6,2.14a9.64,9.64,0,0,1,1.49,9.86,18.35,18.35,0,0,1-3.19,4.58l-.65.78c-1.69,2-3.92,5.05-3.9,8.37a.7.7,0,0,1-.28.56A.75.75,0,0,1,393.61,326.29Zm-11.26-20.54h-.18c-1.32,0-2.68.08-3.44.86a4.2,4.2,0,0,0-.73,3.09c.07,1.86.32,4,1.57,5.45a10.92,10.92,0,0,0,4.52,2.68,15.62,15.62,0,0,1,4.33,2.28,17.1,17.1,0,0,1,1.94,2.06,9.19,9.19,0,0,0,2.56,2.41c.36-3.36,2.51-6.29,4.17-8.27l.67-.78a17.52,17.52,0,0,0,3-4.22,8.24,8.24,0,0,0-1.28-8.42c-1.05-1.24-2.79-2.25-4.32-1.71a5.77,5.77,0,0,0-2.15,1.76,18.43,18.43,0,0,0-3.66,5.18.75.75,0,0,1-1,.41.72.72,0,0,1-.41-.37.69.69,0,0,1-.43-.42C387,306.41,385.29,305.75,382.35,305.75Z" transform="translate(-29.16 -3)"/><path class="cls-1" d="M383.66,316.38h-.12a5.85,5.85,0,0,1-4.09-2.77,5.39,5.39,0,0,1-.3-4.79.75.75,0,0,1,1-.39.71.71,0,0,1,.41.93,4.06,4.06,0,0,0,.23,3.56,4.37,4.37,0,0,0,3,2.06.71.71,0,0,1,.61.82A.73.73,0,0,1,383.66,316.38Z" transform="translate(-29.16 -3)"/><path class="cls-1" d="M382.41,307.94h-.74a.71.71,0,1,1,0-1.42h.74a.71.71,0,1,1,0,1.42Z" transform="translate(-29.16 -3)"/><path class="cls-1" d="M569.82,41a.5.5,0,0,1-.17,0c-1.9-.41-3.09-1.83-4.24-3.21a15.18,15.18,0,0,0-1.76-1.88,14.18,14.18,0,0,0-3.93-2,12.31,12.31,0,0,1-5.1-3.1c-1.52-1.82-1.81-4.2-1.89-6.29a5.38,5.38,0,0,1,1.13-4.12c1.16-1.18,2.94-1.29,4.5-1.31,3.2,0,5.32.69,6.33,2.12a24.38,24.38,0,0,1,3.37-4.43,7,7,0,0,1,2.77-2.16c2.21-.79,4.59.51,6,2.14a9.62,9.62,0,0,1,1.5,9.86,18.53,18.53,0,0,1-3.19,4.58l-.66.77c-1.68,2-3.91,5.06-3.89,8.38a.68.68,0,0,1-.28.55A.7.7,0,0,1,569.82,41ZM558.55,20.47h-.17c-1.32,0-2.68.09-3.44.87a4.2,4.2,0,0,0-.73,3.09c.07,1.85.31,3.95,1.57,5.45a10.88,10.88,0,0,0,4.51,2.68,15.48,15.48,0,0,1,4.33,2.28,16.47,16.47,0,0,1,2,2.06,9.33,9.33,0,0,0,2.56,2.41C569.49,36,571.64,33,573.3,31l.67-.78a17.2,17.2,0,0,0,3-4.22,8.24,8.24,0,0,0-1.27-8.43c-1-1.23-2.8-2.24-4.32-1.7a5.8,5.8,0,0,0-2.16,1.76,18.29,18.29,0,0,0-3.66,5.18.74.74,0,0,1-.95.41.72.72,0,0,1-.41-.37.7.7,0,0,1-.43-.43C563.23,21.14,561.49,20.47,558.55,20.47Z" transform="translate(-29.16 -3)"/><path class="cls-1" d="M559.87,31.11h-.12a5.83,5.83,0,0,1-4.09-2.77,5.39,5.39,0,0,1-.31-4.79.76.76,0,0,1,1-.39.7.7,0,0,1,.4.93,4.09,4.09,0,0,0,.23,3.56,4.42,4.42,0,0,0,3,2.06.71.71,0,0,1,.61.81A.74.74,0,0,1,559.87,31.11Z" transform="translate(-29.16 -3)"/><path class="cls-1" d="M558.62,22.67h-.74a.71.71,0,1,1,0-1.42h.74a.71.71,0,1,1,0,1.42Z" transform="translate(-29.16 -3)"/><path class="cls-1" d="M96.14,272.07h-.08a15.64,15.64,0,0,1-5-1.11,28.44,28.44,0,0,1-7.18-4.69l-4.29-3.48a21.75,21.75,0,0,1-18.41-5.24,15.5,15.5,0,0,1-5.49-9.63c-.55-5.19,2.61-10.71,8.05-14,4.93-3,10.78-4,15.87-4.74,6.2-.86,12.76-1.37,18.71.67C104,231.73,110,237,109.69,243.9c-.15,4.14-2.73,8.38-6.89,11.32a36.79,36.79,0,0,1-11.13,4.87c.8,3.31,2.18,7.17,5.3,9.92a1.14,1.14,0,0,1,.3,1.34A1.22,1.22,0,0,1,96.14,272.07ZM79.85,260.23a1.26,1.26,0,0,1,.8.28l4.87,3.94a26.27,26.27,0,0,0,6.53,4.32c.27.11.55.21.83.3A25.18,25.18,0,0,1,89,259.51a1.17,1.17,0,0,1,.86-1.37c3.74-1.06,8-2.39,11.47-4.83s5.76-6.07,5.89-9.5c.2-5.48-4.73-10.08-9.7-11.79-5.71-2-12-1.32-17.52-.56-4.85.67-10.39,1.62-14.9,4.39s-7.38,7.51-6.92,11.81a13.18,13.18,0,0,0,4.7,8.14,19.23,19.23,0,0,0,16.21,4.67A1.26,1.26,0,0,1,79.85,260.23Z" transform="translate(-29.16 -3)"/><path class="cls-1" d="M80.16,251.86h-.08a1.2,1.2,0,0,1-1.15-1.26c.13-1.9,1.32-3.47,2.37-4.85s2-2.68,1.75-4a2.31,2.31,0,0,0-2.55-1.63,2.22,2.22,0,0,0-1.74,2.42,1.17,1.17,0,0,1-1,1.37,1.22,1.22,0,0,1-1.43-1,4.62,4.62,0,0,1,3.7-5.17,4.79,4.79,0,0,1,5.43,3.47c.51,2.32-.91,4.19-2.16,5.85a7.57,7.57,0,0,0-1.91,3.62A1.21,1.21,0,0,1,80.16,251.86Z" transform="translate(-29.16 -3)"/><path class="cls-1" d="M82,257.77a1.24,1.24,0,0,1-.73-.23,2.08,2.08,0,0,1-.64-2.62,2.23,2.23,0,0,1,2.42-1.35,1.09,1.09,0,0,1,.36.12,2,2,0,0,1,.9,2.61,1.26,1.26,0,0,1-1.15.68,1,1,0,0,1-.16.31A1.28,1.28,0,0,1,82,257.77Z" transform="translate(-29.16 -3)"/><path class="cls-1" d="M1104.7,130h0a9.28,9.28,0,0,1-2.87-.64,16.83,16.83,0,0,1-4.15-2.72l-2.48-2a12.55,12.55,0,0,1-10.64-3,8.93,8.93,0,0,1-3.17-5.57c-.32-3,1.51-6.18,4.65-8.12,2.85-1.75,6.23-2.33,9.18-2.74,3.58-.49,7.37-.79,10.81.39,3.26,1.12,6.7,4.15,6.55,8.16a8.79,8.79,0,0,1-4,6.54,21.51,21.51,0,0,1-6.44,2.82,10.74,10.74,0,0,0,3.07,5.73.67.67,0,0,1,.17.77A.7.7,0,0,1,1104.7,130Zm-9.42-6.84a.72.72,0,0,1,.46.16l2.81,2.28a15.56,15.56,0,0,0,3.78,2.49l.48.18a14.64,14.64,0,0,1-2.24-5.53.68.68,0,0,1,.5-.79,21.62,21.62,0,0,0,6.63-2.79,7.41,7.41,0,0,0,3.4-5.49c.12-3.17-2.73-5.83-5.6-6.82-3.3-1.13-7-.76-10.13-.32-2.8.39-6,.93-8.61,2.54s-4.27,4.33-4,6.82a7.62,7.62,0,0,0,2.72,4.71,11.14,11.14,0,0,0,9.37,2.7A.67.67,0,0,1,1095.28,123.16Z" transform="translate(-29.16 -3)"/><path class="cls-1" d="M1095.46,118.32h0a.7.7,0,0,1-.66-.73,5.47,5.47,0,0,1,1.37-2.81c.63-.83,1.17-1.55,1-2.3a1.34,1.34,0,0,0-1.48-.94,1.29,1.29,0,0,0-1,1.4.69.69,0,0,1-.58.8.71.71,0,0,1-.82-.56,2.66,2.66,0,0,1,2.13-3,2.76,2.76,0,0,1,3.14,2c.3,1.34-.52,2.43-1.25,3.38a4.42,4.42,0,0,0-1.1,2.1A.7.7,0,0,1,1095.46,118.32Z" transform="translate(-29.16 -3)"/><path class="cls-1" d="M1096.53,121.74a.71.71,0,0,1-.42-.14,1.18,1.18,0,0,1-.37-1.51,1.28,1.28,0,0,1,1.4-.78.48.48,0,0,1,.2.07,1.14,1.14,0,0,1,.53,1.51.75.75,0,0,1-.67.39.54.54,0,0,1-.1.18A.72.72,0,0,1,1096.53,121.74Z" transform="translate(-29.16 -3)"/><path class="cls-1" d="M649.55,345.63l0,0a8.34,8.34,0,0,1-.74-2.73,15,15,0,0,1,.57-4.79l.69-3a11.4,11.4,0,0,1-2.17-10.46,9.06,9.06,0,0,1,3.66-5.28c2.62-1.67,6.41-1.61,9.65.16A22.3,22.3,0,0,1,668,326c2.12,2.81,4.16,5.89,4.68,9.36.49,3.29-.7,7.62-4.46,9.36a9.56,9.56,0,0,1-7.89-.33,20.93,20.93,0,0,1-5.6-4.15,11,11,0,0,0-3.86,5.28.69.69,0,0,1-.63.5A.72.72,0,0,1,649.55,345.63Zm1.92-11.19a.64.64,0,0,1,.07.47l-.79,3.45a14.27,14.27,0,0,0-.54,4.38c0,.16,0,.32.06.48a15.21,15.21,0,0,1,4.05-4.47.73.73,0,0,1,1,.05,21.14,21.14,0,0,0,5.66,4.33,8.08,8.08,0,0,0,6.65.33c3-1.38,4.1-5,3.67-7.94-.5-3.33-2.55-6.26-4.43-8.75a21.16,21.16,0,0,0-6.35-6.13c-2.78-1.52-6-1.6-8.16-.21a7.66,7.66,0,0,0-3.07,4.5,10,10,0,0,0,1.88,9.21A.69.69,0,0,1,651.47,334.44Z" transform="translate(-29.16 -3)"/><path class="cls-1" d="M656,332.34a.05.05,0,0,1,0,0,.67.67,0,0,1,.36-.9,6,6,0,0,1,3.23-.15c1.06.15,2,.28,2.58-.21a1.24,1.24,0,0,0,.18-1.69,1.37,1.37,0,0,0-1.76-.2.73.73,0,0,1-1-.12.67.67,0,0,1,.13-1,2.85,2.85,0,0,1,3.74.42,2.57,2.57,0,0,1-.38,3.6c-1.1.88-2.48.69-3.7.52a4.74,4.74,0,0,0-2.44,0A.72.72,0,0,1,656,332.34Z" transform="translate(-29.16 -3)"/><path class="cls-1" d="M653.36,334.84a.74.74,0,0,1-.07-.42,1.38,1.38,0,0,1,2.6-.19.64.64,0,0,1,0,.2,1.18,1.18,0,0,1-1.15,1.15.74.74,0,0,1-.67-.38h-.21A.72.72,0,0,1,653.36,334.84Z" transform="translate(-29.16 -3)"/><path class="cls-1" d="M39,138.87a1.23,1.23,0,0,1-.77-.26,1.15,1.15,0,0,1-.35-1.42c1.54-3.2,2-6.58,2.39-10.15.09-.68.17-1.36.26-2-11-5.16-13.12-16.68-10.2-26S42,80.81,54.46,82.85C69,85.23,78.21,99.31,77.77,111c-.38,9.9-7.43,16.44-18.86,17.5a1.45,1.45,0,0,1-.36,0l-4.92-.93h-.05c-1.4.5-6.11,4.59-9,7.07-2,1.73-3.73,3.23-4.84,4.06A1.32,1.32,0,0,1,39,138.87ZM50.86,84.92c-9.33,0-15.76,7.07-18.15,14.74C30,108.23,32,118.83,42.39,123.2a1.18,1.18,0,0,1,.73,1.25c-.14,1-.26,1.92-.38,2.86a51.36,51.36,0,0,1-1.1,6.64L43,132.81c7.43-6.44,9.85-8.27,11.35-7.59l4.54.86c10.13-1,16.12-6.52,16.45-15.2.4-10.44-8.23-23.56-21.26-25.69A19.51,19.51,0,0,0,50.86,84.92Z" transform="translate(-29.16 -3)"/><path class="cls-1" d="M53.13,111.67a1.53,1.53,0,0,1-.3,0,1.91,1.91,0,0,1-1.18-.83,1.12,1.12,0,0,1-.34-.83v0a62.9,62.9,0,0,1-.82-9.59c0-2.52,1-4.18,2.67-4.54a3.37,3.37,0,0,1,3.59,1.83,5.82,5.82,0,0,1,.47,3.2,19.26,19.26,0,0,1-2.93,8.74,1.17,1.17,0,0,1,.1,1.41A1.51,1.51,0,0,1,53.13,111.67Zm.62-13.54h-.07c-.44.09-.74,1-.73,2.21,0,2,.13,4,.34,5.94a16.5,16.5,0,0,0,1.46-5.61,3.82,3.82,0,0,0-.22-2A1.06,1.06,0,0,0,53.75,98.13Z" transform="translate(-29.16 -3)"/><path class="cls-1" d="M51.77,120.8a1.21,1.21,0,0,1-1.23-1.12,1.17,1.17,0,0,1,.08-.5,3,3,0,0,1-.91-.9,2.53,2.53,0,0,1,0-2.87,1.18,1.18,0,0,1,.41-.36,3.29,3.29,0,0,1,2.78-.13,3.1,3.1,0,0,1,1.89,1.94,3,3,0,0,1-.51,2.62,3.22,3.22,0,0,1-2.41,1.32Zm.07-3.72a.39.39,0,0,0,.18.13h.09l-.18-.09Z" transform="translate(-29.16 -3)"/><path class="cls-1" d="M1018.83,308.87a.88.88,0,0,1-.55-.19.82.82,0,0,1-.25-1,22.53,22.53,0,0,0,1.71-7.28c.06-.48.12-1,.19-1.46-7.92-3.69-9.41-12-7.32-18.65s8.35-13,17.29-11.56c10.39,1.7,17,11.79,16.71,20.15-.28,7.1-5.33,11.78-13.52,12.54a1.13,1.13,0,0,1-.26,0l-3.53-.67h0c-1,.37-4.38,3.3-6.43,5.07-1.43,1.25-2.67,2.32-3.47,2.91A.9.9,0,0,1,1018.83,308.87Zm8.49-38.68c-6.69,0-11.3,5.07-13,10.57-1.91,6.14-.51,13.74,7,16.88a.84.84,0,0,1,.52.89c-.1.69-.19,1.37-.27,2.05a37.8,37.8,0,0,1-.79,4.76c.31-.26.62-.54.94-.82,5.33-4.62,7.07-5.93,8.14-5.44l3.26.62c7.25-.71,11.55-4.68,11.79-10.9.28-7.48-5.9-16.89-15.24-18.42A14,14,0,0,0,1027.32,270.19Z" transform="translate(-29.16 -3)"/><path class="cls-1" d="M1028.94,289.37l-.21,0a1.33,1.33,0,0,1-.84-.6.78.78,0,0,1-.25-.6h0a45.28,45.28,0,0,1-.58-6.87c0-1.81.68-3,1.91-3.26a2.42,2.42,0,0,1,2.57,1.31,4.2,4.2,0,0,1,.34,2.3,13.73,13.73,0,0,1-2.11,6.27.81.81,0,0,1,.08,1A1.08,1.08,0,0,1,1028.94,289.37Zm.45-9.71h-.05c-.32.07-.53.72-.52,1.58,0,1.42.09,2.85.24,4.26a11.94,11.94,0,0,0,1-4,2.76,2.76,0,0,0-.15-1.41A.78.78,0,0,0,1029.39,279.66Z" transform="translate(-29.16 -3)"/><path class="cls-1" d="M1028,295.91a.88.88,0,0,1-.89-.8.86.86,0,0,1,.07-.36,2.23,2.23,0,0,1-.66-.64,1.82,1.82,0,0,1,0-2.06.73.73,0,0,1,.29-.26,2.38,2.38,0,0,1,2-.1,2.25,2.25,0,0,1,1.35,1.4,2.12,2.12,0,0,1-.36,1.88,2.27,2.27,0,0,1-1.73.94Zm0-2.66a.29.29,0,0,0,.13.09h.06l-.13-.06Z" transform="translate(-29.16 -3)"/><path class="cls-1" d="M435.49,70.63a.71.71,0,0,1-.44-.15.65.65,0,0,1-.2-.81,18,18,0,0,0,1.36-5.79l.15-1.17c-6.3-2.94-7.48-9.51-5.82-14.84s6.64-10.37,13.75-9.2c8.27,1.35,13.56,9.38,13.3,16-.21,5.64-4.23,9.37-10.76,10h-.2l-2.81-.54h0c-.79.29-3.48,2.62-5.11,4-1.14,1-2.12,1.85-2.76,2.32A.76.76,0,0,1,435.49,70.63Zm6.75-30.78c-5.32,0-9,4-10.35,8.41-1.53,4.89-.41,10.94,5.52,13.43a.65.65,0,0,1,.41.71L437.61,64a29.66,29.66,0,0,1-.63,3.79l.75-.65c4.24-3.68,5.63-4.72,6.48-4.33l2.59.49c5.78-.56,9.2-3.72,9.39-8.67.22-6-4.7-13.44-12.13-14.66A11.55,11.55,0,0,0,442.24,39.85Z" transform="translate(-29.16 -3)"/><path class="cls-1" d="M443.54,55.11a.47.47,0,0,1-.17,0,1.07,1.07,0,0,1-.68-.47.63.63,0,0,1-.19-.48h0a35.73,35.73,0,0,1-.46-5.47c0-1.44.54-2.38,1.52-2.59a1.93,1.93,0,0,1,2.05,1,3.27,3.27,0,0,1,.26,1.82,10.89,10.89,0,0,1-1.67,5,.66.66,0,0,1,.06.8A.86.86,0,0,1,443.54,55.11Zm.35-7.72h0c-.25,0-.42.57-.42,1.26,0,1.13.08,2.26.2,3.39a9.58,9.58,0,0,0,.83-3.2,2.19,2.19,0,0,0-.12-1.12A.6.6,0,0,0,443.89,47.39Z" transform="translate(-29.16 -3)"/><path class="cls-1" d="M442.76,60.32a.69.69,0,0,1-.7-.64.58.58,0,0,1,.05-.29,1.49,1.49,0,0,1-.52-.51,1.45,1.45,0,0,1,0-1.64,1.21,1.21,0,0,1,.24-.21,1.89,1.89,0,0,1,1.58-.07,1.75,1.75,0,0,1,1.08,1.11,1.68,1.68,0,0,1-.29,1.5,1.84,1.84,0,0,1-1.37.75Zm0-2.12a.2.2,0,0,0,.11.07h0l-.11-.06Z" transform="translate(-29.16 -3)"/><path class="cls-1" d="M878.56,138.27a.93.93,0,0,1-.55-.18.82.82,0,0,1-.25-1,22.59,22.59,0,0,0,1.71-7.28c.06-.49.12-1,.19-1.46-7.92-3.7-9.41-12-7.32-18.65s8.35-13,17.29-11.57c10.39,1.71,17,11.8,16.71,20.16-.28,7.09-5.33,11.78-13.52,12.54a1.14,1.14,0,0,1-.26,0l-3.53-.66h0c-1,.36-4.38,3.29-6.43,5.07-1.43,1.24-2.67,2.32-3.47,2.91A.89.89,0,0,1,878.56,138.27Zm8.49-38.67c-6.69,0-11.3,5.07-13,10.57-1.91,6.14-.51,13.74,7,16.87a.85.85,0,0,1,.52.9c-.1.69-.19,1.37-.27,2.05a38.1,38.1,0,0,1-.79,4.76l.94-.82c5.33-4.62,7.07-5.93,8.14-5.44l3.26.61c7.25-.71,11.55-4.67,11.79-10.9.28-7.48-5.9-16.88-15.24-18.41A14,14,0,0,0,887.05,99.6Z" transform="translate(-29.16 -3)"/><path class="cls-1" d="M888.67,118.78a.76.76,0,0,1-.21,0,1.35,1.35,0,0,1-.84-.59.78.78,0,0,1-.25-.6h0a45.3,45.3,0,0,1-.58-6.88c0-1.81.68-3,1.91-3.25a2.4,2.4,0,0,1,2.57,1.31,4.17,4.17,0,0,1,.34,2.29,13.65,13.65,0,0,1-2.11,6.27.83.83,0,0,1,.08,1A1.08,1.08,0,0,1,888.67,118.78Zm.45-9.71h0c-.32.07-.53.72-.52,1.59q0,2.13.24,4.26a11.94,11.94,0,0,0,1-4,2.74,2.74,0,0,0-.15-1.41A.75.75,0,0,0,889.12,109.07Z" transform="translate(-29.16 -3)"/><path class="cls-1" d="M887.7,125.32a.88.88,0,0,1-.89-.81.89.89,0,0,1,.07-.36,2,2,0,0,1-.66-.64,1.82,1.82,0,0,1,0-2.06.92.92,0,0,1,.29-.26,2.38,2.38,0,0,1,2-.09,2.2,2.2,0,0,1,1.35,1.4,2.1,2.1,0,0,1-.36,1.87,2.28,2.28,0,0,1-1.73.95Zm0-2.67c.06.07.11.1.13.1h.06l-.13-.07Z" transform="translate(-29.16 -3)"/><path class="cls-1" d="M926,72.74a1.16,1.16,0,0,1-.46-.61,1.15,1.15,0,0,1,.14-1,184.53,184.53,0,0,0,16-29,1.13,1.13,0,0,1,.19-1,10.24,10.24,0,0,1,1.12-1.2,9.79,9.79,0,0,0,.87-.91,1.25,1.25,0,0,1,1.56-.37l54.17,26.7a1.16,1.16,0,0,1,.48,1.68L980,97.82a1.26,1.26,0,0,1-1.68.38,419.24,419.24,0,0,0-52.07-25.33A1.41,1.41,0,0,1,926,72.74Zm18.05-30.45A1.16,1.16,0,0,1,944,43a186.47,186.47,0,0,1-15.43,28.24,421,421,0,0,1,50,24.34l18.73-28.72L945.18,41.18l-.42.41C944.51,41.83,944.26,42.08,944.07,42.29Z" transform="translate(-29.16 -3)"/><path class="cls-1" d="M935.7,70.06a1.17,1.17,0,0,1-.47-.65,1.12,1.12,0,0,1,.21-1c2.41-3,3.79-6.54,5.24-10.31,1.56-4.07,3.18-8.27,6.22-11.65a1.25,1.25,0,0,1,1.74-.13,1.19,1.19,0,0,1,.42.76,239.24,239.24,0,0,0,40.82,20.62,1.18,1.18,0,0,1,.72.77,1.14,1.14,0,0,1-.18,1,141.09,141.09,0,0,0-13.66,22.26,1.21,1.21,0,0,1-.84.65,1.28,1.28,0,0,1-1.06-.24A146.34,146.34,0,0,0,936,70.2,1.15,1.15,0,0,1,935.7,70.06Zm12.13-21c-2.17,2.85-3.47,6.23-4.84,9.79a45.1,45.1,0,0,1-4.65,9.68,149,149,0,0,1,36.87,20.78,143,143,0,0,1,12.3-20.06A240.68,240.68,0,0,1,947.83,49.09Z" transform="translate(-29.16 -3)"/><path class="cls-1" d="M937.15,66.74a1.14,1.14,0,0,1-.46-.61,1.17,1.17,0,0,1,.81-1.48c3.67-1.1,7.41-2.15,11.13-3.13,1-.25,3-.8,4.48.31s1.55,2.84,1.62,4a38.16,38.16,0,0,0,2.32,11.06,1.18,1.18,0,0,1-.75,1.52,1.24,1.24,0,0,1-1.57-.72A40.45,40.45,0,0,1,952.27,66c0-.8-.11-1.9-.64-2.27a3.41,3.41,0,0,0-2.35.07c-3.69,1-7.4,2-11,3.11A1.29,1.29,0,0,1,937.15,66.74Z" transform="translate(-29.16 -3)"/><path class="cls-1" d="M967.54,85.71a1.17,1.17,0,0,1-.51-.85l-1.45-14c0-.12,0-.21,0-.28l-.16,0c-3.55.9-7.12,1.93-10.6,3a1.24,1.24,0,0,1-1.56-.75,1.17,1.17,0,0,1,.78-1.5c3.53-1.12,7.15-2.16,10.74-3.08a2.81,2.81,0,0,1,2.06.1,2.65,2.65,0,0,1,1.24,2.2l1.45,14a1.21,1.21,0,0,1-1.11,1.3A1.35,1.35,0,0,1,967.54,85.71ZM965.75,70.5Z" transform="translate(-29.16 -3)"/><path class="cls-1" d="M974.12,77.39a7.93,7.93,0,0,1-2.21-2.26,1.16,1.16,0,0,1,.39-1.63h0a3.43,3.43,0,0,1-.18-2,3.83,3.83,0,0,1,2.12-2.76A4.92,4.92,0,0,1,980,70.28a6.06,6.06,0,0,1,.83,5.44,3.81,3.81,0,0,1-2.73,2.86,4.12,4.12,0,0,1-2.28-.27A8.51,8.51,0,0,1,974.12,77.39Zm.47-2.76a5.67,5.67,0,0,0,2.18,1.48,1.85,1.85,0,0,0,.85.16c.33-.07.68-.56.88-1.21a3.77,3.77,0,0,0-.44-3.37,2.4,2.4,0,0,0-2.71-.82,1.48,1.48,0,0,0-.78,1.06,1.09,1.09,0,0,0,.21.93,1.15,1.15,0,0,1-.07,1.67Z" transform="translate(-29.16 -3)"/><path class="cls-1" d="M883.5,210.15a.78.78,0,0,1-.29-.38.75.75,0,0,1,.09-.62,114.12,114.12,0,0,0,9.94-18,.72.72,0,0,1,.11-.63,7.94,7.94,0,0,1,.7-.74,6.49,6.49,0,0,0,.54-.57.8.8,0,0,1,1-.23l33.64,16.59a.75.75,0,0,1,.39.45.76.76,0,0,1-.09.59L917,225.73a.79.79,0,0,1-1,.24,259.59,259.59,0,0,0-32.34-15.74Zm11.21-18.91a.75.75,0,0,1,0,.44,116.11,116.11,0,0,1-9.59,17.53,262.6,262.6,0,0,1,31,15.12l11.64-17.83L895.4,190.55l-.26.25C895,191,894.83,191.1,894.71,191.24Z" transform="translate(-29.16 -3)"/><path class="cls-1" d="M889.51,208.48a.74.74,0,0,1-.29-.4.7.7,0,0,1,.13-.65,22.83,22.83,0,0,0,3.25-6.4,22.54,22.54,0,0,1,3.87-7.24.78.78,0,0,1,1.08-.08.75.75,0,0,1,.26.47A148.15,148.15,0,0,0,923.17,207a.75.75,0,0,1,.44.48.68.68,0,0,1-.11.63A88.11,88.11,0,0,0,915,221.93a.73.73,0,0,1-.53.4.79.79,0,0,1-.65-.14,91.13,91.13,0,0,0-24.16-13.62A.56.56,0,0,1,889.51,208.48Zm7.53-13a24.27,24.27,0,0,0-3,6.08,27.69,27.69,0,0,1-2.89,6,92.34,92.34,0,0,1,22.9,12.91A89.16,89.16,0,0,1,921.7,208,150.41,150.41,0,0,1,897,195.46Z" transform="translate(-29.16 -3)"/><path class="cls-1" d="M890.41,206.42a.72.72,0,0,1-.28-.38.73.73,0,0,1,.5-.92c2.28-.68,4.6-1.33,6.91-1.94a3.26,3.26,0,0,1,2.78.19,3.09,3.09,0,0,1,1,2.51,23.46,23.46,0,0,0,1.44,6.87.73.73,0,0,1-.47.94.77.77,0,0,1-1-.44,25,25,0,0,1-1.52-7.29c0-.49-.07-1.18-.4-1.41a2.06,2.06,0,0,0-1.46,0c-2.29.6-4.6,1.25-6.86,1.93A.81.81,0,0,1,890.41,206.42Z" transform="translate(-29.16 -3)"/><path class="cls-1" d="M909.29,218.21a.78.78,0,0,1-.32-.53l-.9-8.73a.82.82,0,0,0,0-.18l-.1,0c-2.21.56-4.42,1.2-6.59,1.89a.78.78,0,0,1-1-.47.74.74,0,0,1,.49-.93c2.19-.7,4.44-1.34,6.67-1.91a1.74,1.74,0,0,1,1.28.06,1.64,1.64,0,0,1,.77,1.37l.9,8.72a.75.75,0,0,1-.69.81A.78.78,0,0,1,909.29,218.21Zm-1.11-9.46Z" transform="translate(-29.16 -3)"/><path class="cls-1" d="M913.38,213a5.11,5.11,0,0,1-1.38-1.4.73.73,0,0,1,.25-1h0a2.21,2.21,0,0,1-.11-1.23,2.41,2.41,0,0,1,1.32-1.72,3.07,3.07,0,0,1,3.59,1,3.82,3.82,0,0,1,.51,3.38,2.37,2.37,0,0,1-1.7,1.78,2.57,2.57,0,0,1-1.41-.17A5.3,5.3,0,0,1,913.38,213Zm.29-1.72a3.61,3.61,0,0,0,1.35.92,1.12,1.12,0,0,0,.53.1c.21,0,.43-.34.55-.75a2.36,2.36,0,0,0-.28-2.1,1.5,1.5,0,0,0-1.68-.51.9.9,0,0,0-.48.67.66.66,0,0,0,.13.57.72.72,0,0,1,0,1Z" transform="translate(-29.16 -3)"/><path class="cls-1" d="M572.71,347.91a.79.79,0,0,1-.48-.05.74.74,0,0,1-.42-.48,113,113,0,0,0-7.33-19.12.76.76,0,0,1-.41-.51,6,6,0,0,1-.11-1,6.56,6.56,0,0,0-.08-.77.73.73,0,0,1,.48-.84l35.32-13a.83.83,0,0,1,.62,0,.71.71,0,0,1,.39.46l6.5,21.68a.73.73,0,0,1-.51.91,261.75,261.75,0,0,0-33.81,12.59Zm-7.17-20.64a.74.74,0,0,1,.31.32,115.66,115.66,0,0,1,7.2,18.56,263.25,263.25,0,0,1,32.46-12.07l-6.06-20.23-34,12.47,0,.35C565.5,326.88,565.52,327.1,565.54,327.27Z" transform="translate(-29.16 -3)"/><path class="cls-1" d="M575.44,342.5a.75.75,0,0,1-.51-.06.72.72,0,0,1-.41-.52,22.82,22.82,0,0,0-2.8-6.61c-1.3-2.38-2.66-4.84-3-7.59a.74.74,0,0,1,.66-.82.77.77,0,0,1,.54.12,149.82,149.82,0,0,0,26.87-9.55.79.79,0,0,1,.67,0,.75.75,0,0,1,.42.5,85.69,85.69,0,0,0,5,15.3.69.69,0,0,1,0,.64.74.74,0,0,1-.55.37,93,93,0,0,0-26.7,8.16A.49.49,0,0,1,575.44,342.5Zm-5.07-14.08a24.24,24.24,0,0,0,2.71,6.21,27.93,27.93,0,0,1,2.73,6.08A94.32,94.32,0,0,1,601.12,333a87.24,87.24,0,0,1-4.56-13.78A151.31,151.31,0,0,1,570.37,328.42Z" transform="translate(-29.16 -3)"/><path class="cls-1" d="M574.44,340.48a.72.72,0,0,1-.48-.05.71.71,0,0,1-.38-1c1-2.08,2-4.18,3.11-6.24a3.12,3.12,0,0,1,2-1.86,3.36,3.36,0,0,1,2.62,1,25.66,25.66,0,0,0,6.29,3.56.73.73,0,0,1,.42,1,.77.77,0,0,1-1,.4,27.72,27.72,0,0,1-6.67-3.77c-.4-.31-1-.74-1.36-.66s-.68.58-.94,1.07c-1.06,2-2.1,4.12-3.09,6.19A.74.74,0,0,1,574.44,340.48Z" transform="translate(-29.16 -3)"/><path class="cls-1" d="M596.19,334.87a.8.8,0,0,1-.62-.12l-7.37-5.19-.15-.1a.19.19,0,0,0,0,.09c-1,1.95-2,3.95-2.94,6a.76.76,0,0,1-1,.38.72.72,0,0,1-.4-1c.92-2,1.92-4.07,3-6.05a1.65,1.65,0,0,1,.9-.87,1.79,1.79,0,0,1,1.57.36l7.37,5.19a.71.71,0,0,1,.17,1A.77.77,0,0,1,596.19,334.87Zm-8.07-5.52Z" transform="translate(-29.16 -3)"/><path class="cls-1" d="M594.91,328.5a5.22,5.22,0,0,1-2,0,.74.74,0,0,1-.62-.85h0a2.39,2.39,0,0,1-1.49-2.84,3,3,0,0,1,3.15-1.92,4.06,4.06,0,0,1,2.95,1.89,2.24,2.24,0,0,1,.25,2.4,2.41,2.41,0,0,1-1.08.9A5.65,5.65,0,0,1,594.91,328.5Zm-1.13-1.35a3.75,3.75,0,0,0,1.61-.36,1,1,0,0,0,.43-.31,1,1,0,0,0-.21-.89,2.59,2.59,0,0,0-1.81-1.21,1.47,1.47,0,0,0-1.52.87.86.86,0,0,0,.19.78.74.74,0,0,0,.53.3.74.74,0,0,1,.78.72Z" transform="translate(-29.16 -3)"/><path class="cls-1" d="M419.65,134.76a12.32,12.32,0,0,1-8.62-2.94,1.22,1.22,0,0,1-.3-.46c-3.84-4.44-4.66-10.64-4.94-15a11.35,11.35,0,0,1,5.59-10.52c6.56-3.88,14.77-.68,18.91,4.65a20.27,20.27,0,0,1,4,11.91,11.74,11.74,0,0,1-1.48,6.66,12.08,12.08,0,0,1-6.65,4.67A21.74,21.74,0,0,1,419.65,134.76Zm-6.32-4.15c3,2.29,8.15,2.12,12.07.87a8.06,8.06,0,0,0,6.45-9,18,18,0,0,0-3.54-10.56c-3.4-4.38-10.35-7.17-15.64-4a9,9,0,0,0-4.42,8.36c.3,4.62,1.13,10.42,5,14.29A.52.52,0,0,1,413.33,130.61Z" transform="translate(-29.16 -3)"/><path class="cls-1" d="M421.07,138.92a19.45,19.45,0,0,1-8.26-1.71c-5.4-2.57-8.31-8.29-10.43-12.47a1,1,0,0,1,0-.86c-1.4-2.06-1.73-4.67-1.86-7.24-.31-6.17,2.18-11.24,7-14.29,5.34-3.37,12.74-3.56,19.3-.49,7.74,3.63,11.55,11.82,11.3,24.35-.08,4.12-2.32,7.67-6.31,10A21.71,21.71,0,0,1,421.07,138.92Zm-16-13.74c2.34,4.47,4.75,8.23,8.71,10.11,4.79,2.28,12,1.89,16.82-.91a9.63,9.63,0,0,0,5.24-8.21c.23-11.62-3.15-19.15-10.05-22.38-5.86-2.75-12.41-2.61-17.09.35-4.15,2.62-6.28,7-6,12.39.13,2.73.51,5.49,2.34,7.14a1,1,0,0,1,0,1.51Z" transform="translate(-29.16 -3)"/><path class="cls-1" d="M409.79,147a1.24,1.24,0,0,1-.56-.13l-5.65-2.75a1.19,1.19,0,0,1-.63-.74,1.12,1.12,0,0,1,.13-.94c1.92-3,3.75-6.16,5.44-9.32a1.25,1.25,0,0,1,1.66-.52,1.16,1.16,0,0,1,.53,1.59c-1.51,2.84-3.13,5.65-4.84,8.39l2.1,1c.17-.35.37-.84.47-1.07s.2-.46.23-.52a17.92,17.92,0,0,1,1.55-2.28c.91-1.21,1.78-2.35,1.85-3.58a1.24,1.24,0,0,1,2.47.14c-.12,1.92-1.24,3.4-2.33,4.84a15.06,15.06,0,0,0-1.35,2l-.13.32c-.2.46-.36.84-.5,1.15l.1.09c.33.29,1.1,1,.48,1.83A1.24,1.24,0,0,1,409.79,147Zm-1.39-3.42Zm0,0h0Z" transform="translate(-29.16 -3)"/><path class="cls-1" d="M397.87,166a1.55,1.55,0,0,1-.68-.17c-1-.51-2.07-1-3.1-1.59s-2.25-1.18-3.39-1.73a1.17,1.17,0,0,1-.67-.91c-.33-2.55,2.94-7.67,6.62-13.14.58-.87,1.06-1.58,1.34-2s.58-.88.88-1.32a11.12,11.12,0,0,0,1.41-2.37c.68-1.74,2.57-1.49,3.37-1.38a4.11,4.11,0,0,0,.61.06,1.19,1.19,0,1,1,.1,2.37,7.2,7.2,0,0,1-1.05-.08,5.1,5.1,0,0,0-.74-.07,14.16,14.16,0,0,1-1.65,2.79c-.28.4-.55.8-.8,1.2s-.79,1.22-1.4,2.12c-1.63,2.42-5.73,8.53-6.21,11,.94.46,1.86,1,2.76,1.42s1.69.89,2.54,1.32c1.4-1.24,5.2-6.82,7.39-10.69a13.06,13.06,0,0,1,1.92-2.3c1.13-1.18,3-3.16,2.53-4a1.15,1.15,0,0,1,.47-1.61,1.26,1.26,0,0,1,1.68.45c1.37,2.33-1,4.79-2.86,6.76a12.93,12.93,0,0,0-1.57,1.83c-1,1.72-2.88,4.76-4.62,7.24C400.3,164.64,399,166,397.87,166Z" transform="translate(-29.16 -3)"/><path class="cls-1" d="M413.4,126.36a1.75,1.75,0,0,1-.32,0,5.36,5.36,0,0,1-3.7-3.89,12.55,12.55,0,0,1-.15-4.67,10.44,10.44,0,0,1,.92-3.92,4.68,4.68,0,0,1,4-2.63h0a1.18,1.18,0,1,1,0,2.36h0a2.27,2.27,0,0,0-1.8,1.33,8.51,8.51,0,0,0-.67,3.08,10.73,10.73,0,0,0,.07,3.84,3,3,0,0,0,1.95,2.21,1.17,1.17,0,0,1,.88,1.44A1.24,1.24,0,0,1,413.4,126.36Z" transform="translate(-29.16 -3)"/><path class="cls-1" d="M420.38,113a1.33,1.33,0,0,1-.64-.17,2,2,0,0,0-1.52-.2,1.24,1.24,0,0,1-1.52-.84,1.18,1.18,0,0,1,.87-1.45,4.63,4.63,0,0,1,3.44.46,1.16,1.16,0,0,1,.43,1.62A1.26,1.26,0,0,1,420.38,113Z" transform="translate(-29.16 -3)"/><path class="cls-1" d="M1130.88,290.7a8.37,8.37,0,0,1-4-5.1.74.74,0,0,1,0-.39c-.47-4.17,1.63-8.24,3.29-11A8.75,8.75,0,0,1,1138,270c5.59.19,9.22,5.28,9.5,10.11a14.72,14.72,0,0,1-2.55,8.77,9,9,0,0,1-3.69,3.45,9.09,9.09,0,0,1-6,.27A15.51,15.51,0,0,1,1130.88,290.7Zm-2.09-4.94c.88,2.56,4,4.42,7,5.18a7.33,7.33,0,0,0,4.74-.16,7.4,7.4,0,0,0,2.94-2.82,13,13,0,0,0,2.28-7.76c-.23-4-3.26-8.33-7.77-8.48a7,7,0,0,0-6.18,3.36c-1.76,2.91-3.68,6.74-3,10.57A.41.41,0,0,1,1128.79,285.76Z" transform="translate(-29.16 -3)"/><path class="cls-1" d="M1130,293.78a13.45,13.45,0,0,1-4.29-4.23c-2.19-3.64-1.56-8.22-1.09-11.57a.77.77,0,0,1,.34-.54,10.18,10.18,0,0,1,1.9-5.1,11.77,11.77,0,0,1,10.23-5.94,14.34,14.34,0,0,1,11.89,7.14c3.17,5.19,2,11.61-3.35,19.1a9.05,9.05,0,0,1-8,3.62A15.67,15.67,0,0,1,1130,293.78Zm-3.92-14.49c-.46,3.6-.57,6.81,1,9.48,1.94,3.23,6.48,5.78,10.56,5.94a7.43,7.43,0,0,0,6.61-2.95c5-6.95,6.11-12.81,3.29-17.43a12.74,12.74,0,0,0-10.5-6.38,10.21,10.21,0,0,0-8.83,5.19c-1.06,1.7-2,3.51-1.57,5.22a.77.77,0,0,1-.6.93Z" transform="translate(-29.16 -3)"/><path class="cls-1" d="M1119.78,294.33a.81.81,0,0,1-.29-.29l-2.27-3.85a.84.84,0,0,1-.08-.69.86.86,0,0,1,.48-.51c2.43-1.1,4.85-2.29,7.2-3.55a.91.91,0,0,1,1.22.32.85.85,0,0,1-.35,1.18c-2.1,1.13-4.26,2.21-6.44,3.21l.85,1.42.73-.46.35-.23a13.94,13.94,0,0,1,1.89-.78,5.69,5.69,0,0,0,2.63-1.45.92.92,0,0,1,1.25-.18.84.84,0,0,1,.18,1.21,7,7,0,0,1-3.43,2,12.6,12.6,0,0,0-1.65.67,1.37,1.37,0,0,1-.21.14c-.31.21-.56.38-.78.51a.2.2,0,0,0,0,.09,1,1,0,0,1-.47,1.3A.93.93,0,0,1,1119.78,294.33Zm.58-2.6Zm0,0Z" transform="translate(-29.16 -3)"/><path class="cls-1" d="M1104.62,301.21a1.07,1.07,0,0,1-.34-.36c-.42-.71-.82-1.44-1.22-2.16s-.86-1.59-1.32-2.35a.85.85,0,0,1,0-.82c.87-1.67,5-3.51,9.51-5.4.72-.3,1.3-.55,1.67-.72s.72-.31,1.09-.45a9.24,9.24,0,0,0,1.84-.89,2.05,2.05,0,0,1,2.62.46,2.79,2.79,0,0,0,.35.27.86.86,0,0,1,.3,1.18.92.92,0,0,1-1.24.29,4.47,4.47,0,0,1-.6-.45c-.12-.1-.31-.26-.42-.33a11.43,11.43,0,0,1-2.17,1.06c-.33.13-.67.26-1,.41s-1,.44-1.73.75c-2,.84-7,2.95-8.36,4.26.37.64.72,1.29,1.07,1.93s.65,1.19,1,1.77a50.39,50.39,0,0,0,8.94-3.62,11.11,11.11,0,0,1,2.13-.65c1.18-.28,3.16-.75,3.21-1.44a.9.9,0,0,1,1.79.12c-.15,1.94-2.6,2.52-4.57,3a10.07,10.07,0,0,0-1.72.5c-1.31.67-3.73,1.78-5.82,2.61C1106.66,301.34,1105.3,301.65,1104.62,301.21Z" transform="translate(-29.16 -3)"/><path class="cls-1" d="M1130.61,283.21a.8.8,0,0,1-.17-.15,3.69,3.69,0,0,1-.61-3.78,9.71,9.71,0,0,1,1.86-2.89,8.08,8.08,0,0,1,2.2-2,3.51,3.51,0,0,1,3.53-.05h0a.84.84,0,0,1,.24,1.2.92.92,0,0,1-1.24.24h0a1.72,1.72,0,0,0-1.64.11,6.43,6.43,0,0,0-1.7,1.6,8.24,8.24,0,0,0-1.57,2.36,2.09,2.09,0,0,0,.26,2.09.84.84,0,0,1-.07,1.21A.94.94,0,0,1,1130.61,283.21Z" transform="translate(-29.16 -3)"/><path class="cls-1" d="M1140.45,277.78a.81.81,0,0,1-.31-.35,1.45,1.45,0,0,0-.84-.71.84.84,0,0,1-.56-1.08.89.89,0,0,1,1.13-.55,3.23,3.23,0,0,1,1.89,1.6.85.85,0,0,1-.42,1.15A.93.93,0,0,1,1140.45,277.78Z" transform="translate(-29.16 -3)"/><path class="cls-1" d="M728.7,320.29a8.84,8.84,0,0,1-6.13,2.44.88.88,0,0,1-.4-.1c-4.32-.6-7.91-3.55-10.28-5.78a8.09,8.09,0,0,1-2.33-8.28c1.56-5.16,7.61-7.28,12.54-6.35a16.08,16.08,0,0,1,8.23,4.54,8.82,8.82,0,0,1,2.58,4.28,8.15,8.15,0,0,1-1.21,5.63A14.7,14.7,0,0,1,728.7,320.29Zm-5.5.72c2.79-.19,5.46-2.67,6.94-5.18a6.57,6.57,0,0,0,1-4.45A7.12,7.12,0,0,0,729,308a14.16,14.16,0,0,0-7.27-4c-4.06-.77-9.22,1-10.48,5.14a6.44,6.44,0,0,0,1.86,6.57c2.51,2.35,5.9,5.09,9.94,5.37Z" transform="translate(-29.16 -3)"/><path class="cls-1" d="M731.59,321.87a13.79,13.79,0,0,1-5.33,2.94c-4.21,1.14-8.69-.58-12-1.84a.79.79,0,0,1-.46-.45,10.84,10.84,0,0,1-4.68-3c-3.3-3.18-4.53-7.08-3.48-11,1.17-4.31,5.06-7.88,10.15-9.29,6-1.67,12.23,1,18.46,7.83a8.29,8.29,0,0,1,1.68,8.34A14.66,14.66,0,0,1,731.59,321.87Zm-15.59.07c3.52,1.31,6.73,2.21,9.82,1.37a13.49,13.49,0,0,0,8.61-8.36,6.84,6.84,0,0,0-1.35-6.88c-5.78-6.37-11.43-8.84-16.79-7.36-4.55,1.27-8,4.4-9,8.19-.9,3.35.18,6.72,3.06,9.49,1.46,1.41,3.06,2.72,4.88,2.76a.79.79,0,0,1,.8.79Z" transform="translate(-29.16 -3)"/><path class="cls-1" d="M729.63,331.51a.87.87,0,0,1-.37.19l-4.45,1.17a1,1,0,0,1-.71-.1.91.91,0,0,1-.41-.57c-.5-2.53-1.11-5.08-1.8-7.57a.86.86,0,0,1,.63-1.06.91.91,0,0,1,1.1.61c.62,2.23,1.18,4.51,1.65,6.78l1.65-.43c-.09-.27-.23-.62-.29-.79s-.13-.35-.14-.39a13.47,13.47,0,0,1-.33-2,5.23,5.23,0,0,0-.81-2.8.84.84,0,0,1,.13-1.21.92.92,0,0,1,1.26.13,6.5,6.5,0,0,1,1.21,3.69,10.61,10.61,0,0,0,.27,1.7l.09.23c.13.34.24.62.32.86h.1c.32,0,1.08,0,1.19.76A.85.85,0,0,1,729.63,331.51Zm-2.49-1.19Zm0,0Z" transform="translate(-29.16 -3)"/><path class="cls-1" d="M732.83,347.31a1.07,1.07,0,0,1-.45.23c-.82.21-1.65.4-2.48.59s-1.81.42-2.7.65a1,1,0,0,1-.83-.17c-1.47-1.23-2.31-5.52-3.11-10.18-.12-.74-.23-1.35-.31-1.73s-.13-.75-.19-1.12a8.22,8.22,0,0,0-.45-1.94c-.52-1.26.63-2,1.12-2.32a2.62,2.62,0,0,0,.36-.26.94.94,0,0,1,1.27,0,.84.84,0,0,1,0,1.21,3.68,3.68,0,0,1-.61.45,3,3,0,0,0-.43.32,9.55,9.55,0,0,1,.53,2.27c.06.34.11.69.18,1s.19,1,.32,1.79c.36,2.07,1.25,7.28,2.24,8.83.74-.19,1.49-.36,2.21-.52l2-.48a45.79,45.79,0,0,0-1.45-9.22,9.1,9.1,0,0,1-.13-2.14c0-1.16,0-3.12-.67-3.34a.85.85,0,0,1-.57-1.08.91.91,0,0,1,1.14-.55c1.92.61,1.91,3,1.89,5a9.44,9.44,0,0,0,.08,1.73c.35,1.38.87,3.91,1.2,6.06C733.46,345.44,733.44,346.78,732.83,347.31Z" transform="translate(-29.16 -3)"/><path class="cls-1" d="M721.07,318.69a1.22,1.22,0,0,1-.19.12,4.15,4.15,0,0,1-4-.36,9.78,9.78,0,0,1-2.44-2.45,7.63,7.63,0,0,1-1.5-2.54,3.19,3.19,0,0,1,.82-3.3h0a.93.93,0,0,1,1.27.06.84.84,0,0,1-.07,1.22h0a1.52,1.52,0,0,0-.3,1.55,6.33,6.33,0,0,0,1.2,2,8.18,8.18,0,0,0,2,2,2.33,2.33,0,0,0,2.17.28.92.92,0,0,1,1.21.37A.85.85,0,0,1,721.07,318.69Z" transform="translate(-29.16 -3)"/><path class="cls-1" d="M718,308.19a.92.92,0,0,1-.43.21,1.42,1.42,0,0,0-.92.6.92.92,0,0,1-1.24.26.84.84,0,0,1-.27-1.19,3.24,3.24,0,0,1,2.08-1.36.9.9,0,0,1,1.06.68A.85.85,0,0,1,718,308.19Z" transform="translate(-29.16 -3)"/><path class="cls-1" d="M198.29,227a6.56,6.56,0,0,1-4.53,1.81.74.74,0,0,1-.29-.08c-3.19-.44-5.84-2.62-7.58-4.26a6,6,0,0,1-1.72-6.11c1.15-3.81,5.61-5.37,9.25-4.68a11.74,11.74,0,0,1,6.07,3.35,6.44,6.44,0,0,1,1.9,3.15,6.05,6.05,0,0,1-.89,4.16A11,11,0,0,1,198.29,227Zm-4.06.54c2.06-.14,4-2,5.12-3.83a4.78,4.78,0,0,0,.74-3.28,5.2,5.2,0,0,0-1.56-2.53,10.5,10.5,0,0,0-5.36-3c-3-.56-6.8.73-7.73,3.79a4.74,4.74,0,0,0,1.37,4.85c1.85,1.74,4.35,3.75,7.33,4Z" transform="translate(-29.16 -3)"/><path class="cls-1" d="M200.42,228.18a10.27,10.27,0,0,1-3.93,2.17c-3.11.84-6.41-.43-8.82-1.36a.58.58,0,0,1-.34-.33,9.39,9.39,0,0,1-6-10.33c.86-3.19,3.73-5.81,7.49-6.86,4.44-1.23,9,.71,13.62,5.78a6.13,6.13,0,0,1,1.24,6.15A10.72,10.72,0,0,1,200.42,228.18Zm-11.5,0c2.6,1,5,1.63,7.25,1a9.93,9.93,0,0,0,6.34-6.17,5,5,0,0,0-1-5.07c-4.27-4.7-8.43-6.52-12.39-5.43a9.22,9.22,0,0,0-6.66,6.05,7,7,0,0,0,2.26,7,5.8,5.8,0,0,0,3.6,2,.58.58,0,0,1,.59.58Z" transform="translate(-29.16 -3)"/><path class="cls-1" d="M199,235.29a.72.72,0,0,1-.27.15l-3.28.85a.7.7,0,0,1-.53-.07.63.63,0,0,1-.29-.42c-.38-1.87-.82-3.75-1.34-5.59a.64.64,0,0,1,.47-.77.67.67,0,0,1,.81.45c.46,1.64.87,3.32,1.22,5l1.22-.32c-.07-.2-.17-.46-.22-.58l-.11-.29a9.17,9.17,0,0,1-.23-1.44,3.83,3.83,0,0,0-.61-2.06.63.63,0,0,1,.1-.9.67.67,0,0,1,.93.1,4.7,4.7,0,0,1,.89,2.72,9.23,9.23,0,0,0,.2,1.26.84.84,0,0,1,.07.17,6.48,6.48,0,0,1,.23.63h.08c.24,0,.8,0,.88.56A.61.61,0,0,1,199,235.29Zm-1.83-.88h0Zm0,0Z" transform="translate(-29.16 -3)"/><path class="cls-1" d="M201.34,247a.82.82,0,0,1-.34.16c-.6.16-1.22.3-1.83.44s-1.34.31-2,.49a.7.7,0,0,1-.61-.14c-1.09-.9-1.71-4.06-2.29-7.51-.1-.54-.17-1-.23-1.27s-.1-.55-.15-.83a6.36,6.36,0,0,0-.32-1.43c-.39-.92.46-1.47.82-1.71a2.55,2.55,0,0,0,.26-.19.69.69,0,0,1,.94,0,.63.63,0,0,1,0,.9,3.45,3.45,0,0,1-.45.33l-.32.23a7,7,0,0,1,.39,1.68c0,.25.08.51.13.76s.14.75.24,1.32c.26,1.52.92,5.37,1.65,6.52l1.63-.39c.51-.12,1-.23,1.51-.36a33.79,33.79,0,0,0-1.07-6.79,6.79,6.79,0,0,1-.1-1.58c0-.86,0-2.3-.49-2.46a.63.63,0,0,1-.42-.81.67.67,0,0,1,.84-.4c1.42.45,1.4,2.24,1.39,3.68a6.49,6.49,0,0,0,.07,1.27c.25,1,.64,2.88.87,4.47C201.8,245.57,201.78,246.56,201.34,247Z" transform="translate(-29.16 -3)"/><path class="cls-1" d="M192.66,225.83a.42.42,0,0,1-.14.09,3,3,0,0,1-2.93-.26,7.23,7.23,0,0,1-1.81-1.81,5.46,5.46,0,0,1-1.1-1.88,2.35,2.35,0,0,1,.6-2.43h0a.68.68,0,0,1,.93.05.61.61,0,0,1-.05.89h0a1.14,1.14,0,0,0-.22,1.14,4.67,4.67,0,0,0,.89,1.46,6.17,6.17,0,0,0,1.47,1.5,1.72,1.72,0,0,0,1.6.21.68.68,0,0,1,.89.27A.62.62,0,0,1,192.66,225.83Z" transform="translate(-29.16 -3)"/><path class="cls-1" d="M190.41,218.09a.63.63,0,0,1-.32.15,1.07,1.07,0,0,0-.68.45.68.68,0,0,1-.91.19.62.62,0,0,1-.2-.88,2.35,2.35,0,0,1,1.53-1,.66.66,0,0,1,.78.5A.62.62,0,0,1,190.41,218.09Z" transform="translate(-29.16 -3)"/><path class="cls-1" d="M851.73,88.89c-.34-.14-.65-.3-.9-.43-11.25-5.75-22.93-11-34.73-15.64-8.13-3.19-16.94-7.27-18.54-15.45a1.18,1.18,0,0,1,1-1.38h.09a138.22,138.22,0,0,1,13.58-23,8.49,8.49,0,0,1,2-2.1c3.56-2.37,8.17.67,9.91,1.81,1.13.75,5,3,6.9,1.22a7.28,7.28,0,0,0,1.11-1.69c.66-1.23,1.48-2.76,3.31-3.11a5.48,5.48,0,0,1,3.13.55L851.68,35a6.17,6.17,0,0,1,2.48,1.58c1.27,1.56.82,3.37.43,5a10.44,10.44,0,0,0-.35,1.83c-.14,2.46,2.12,4.74,6.9,7l6.78,3.15a3.6,3.6,0,0,1,2.22,2.12,3.47,3.47,0,0,1-.36,2.32L857.13,86.28a4.69,4.69,0,0,1-2.67,2.87A4.16,4.16,0,0,1,851.73,88.89Zm-29.07-16c10,4.09,19.8,8.61,29.33,13.49a2.92,2.92,0,0,0,1.74.51c.45-.13.81-.82,1.13-1.54L867.51,57a2.17,2.17,0,0,0,.24-.78c0-.09-.2-.26-.9-.59l-6.79-3.15c-3.68-1.71-8.55-4.53-8.28-9.22a12.06,12.06,0,0,1,.41-2.25c.35-1.43.53-2.35,0-3a4,4,0,0,0-1.51-.87l-13.1-5.35a3.52,3.52,0,0,0-1.69-.41c-.62.12-1,.79-1.6,1.87a8.62,8.62,0,0,1-1.56,2.29c-2.23,2.13-5.89,1.79-10-1-2.12-1.39-5.17-3.1-7.1-1.81a5.87,5.87,0,0,0-1.38,1.51,135,135,0,0,0-13.71,23.35,1,1,0,0,1-.26.36c2,6.28,9.65,9.77,16.76,12.56Q819.85,71.72,822.66,72.88Z" transform="translate(-29.16 -3)"/><path class="cls-1" d="M823.57,64.75a16.07,16.07,0,0,1-6.83-5.32h0a12.09,12.09,0,0,1-1.9-11.63,11.64,11.64,0,0,1,9.64-7.16,14.37,14.37,0,0,1,5.09.49c5.75,1.56,10.19,6.11,11,11.33a11.8,11.8,0,0,1-8.35,13A14,14,0,0,1,823.57,64.75Zm-4.82-6.69c3.08,4.18,8.38,6.3,12.89,5.15a9.37,9.37,0,0,0,6.55-10.38c-.71-4.26-4.53-8.13-9.29-9.42a11.61,11.61,0,0,0-4.18-.41,9.14,9.14,0,0,0-7.57,5.62,9.85,9.85,0,0,0,1.6,9.44Z" transform="translate(-29.16 -3)"/><path class="cls-1" d="M824.42,62.17A12.65,12.65,0,0,1,819.11,58h0a9.39,9.39,0,0,1-1.47-9,9,9,0,0,1,7.48-5.56,11.18,11.18,0,0,1,4,.38c4.47,1.21,7.92,4.74,8.59,8.8a9.18,9.18,0,0,1-6.5,10.13A10.93,10.93,0,0,1,824.42,62.17ZM820.68,57c2.39,3.24,6.5,4.89,10,4a7.26,7.26,0,0,0,5.09-8.06c-.54-3.31-3.51-6.32-7.21-7.32a9.07,9.07,0,0,0-3.25-.32,7.08,7.08,0,0,0-5.87,4.36A7.63,7.63,0,0,0,820.68,57Z" transform="translate(-29.16 -3)"/><path class="cls-1" d="M841.25,81.13l-.07,0a.91.91,0,0,1-.4-1.25,91.17,91.17,0,0,0,10-28.24,1,1,0,0,1,1.11-.75.92.92,0,0,1,.78,1.06,92.73,92.73,0,0,1-10.2,28.79A1,1,0,0,1,841.25,81.13Z" transform="translate(-29.16 -3)"/><path class="cls-1" d="M864,53.63a1,1,0,0,1-.43-.35.9.9,0,0,1,.28-1.27.57.57,0,0,0,.24-.5,1.49,1.49,0,0,0-.6-1.16,5.42,5.42,0,0,0-3.21-.47l-3.48.14a.92.92,0,1,1-.08-1.84l3.48-.14a7.21,7.21,0,0,1,4.39.8,3.25,3.25,0,0,1,1.41,2.7,2.35,2.35,0,0,1-1.1,2A1,1,0,0,1,864,53.63Z" transform="translate(-29.16 -3)"/><path class="cls-1" d="M840.5,42.25A7.64,7.64,0,0,1,837,39.9a3.43,3.43,0,0,1-.49-2.86,2.68,2.68,0,0,1,.41-.85.89.89,0,0,1,0-.81,1,1,0,0,1,1.26-.47l8.91,3.79a.93.93,0,0,1,.51.52,2.47,2.47,0,0,1-.23,2.2,3.65,3.65,0,0,1-2.48,1.68A7.93,7.93,0,0,1,840.5,42.25Zm-1.9-5.14a.86.86,0,0,0-.24.42,1.64,1.64,0,0,0,.23,1.34,5.87,5.87,0,0,0,2.73,1.72,6.05,6.05,0,0,0,3.2.7,1.79,1.79,0,0,0,1.16-.78,1,1,0,0,0,.13-.34Z" transform="translate(-29.16 -3)"/><path class="cls-1" d="M856.56,63.47a6.43,6.43,0,0,1-3.76-4,.91.91,0,0,1,.66-1.14.69.69,0,0,1,.2,0,.83.83,0,0,1,0-.22,1,1,0,0,1,1.15-.69L864,59.46a.94.94,0,0,1,.66.53.91.91,0,0,1,0,.82,6.7,6.7,0,0,1-6.41,3.1A6.4,6.4,0,0,1,856.56,63.47Zm-1.82-4.25a4.65,4.65,0,0,0,3.73,2.87,4.85,4.85,0,0,0,3.66-1.18Z" transform="translate(-29.16 -3)"/><path class="cls-1" d="M268.77,63.77l-.62.28c-7.85,3.31-15.62,7-23.08,11.1-5.14,2.8-11.06,5.56-16.23,3a.78.78,0,0,1-.36-1.07.1.1,0,0,1,0,0,91.36,91.36,0,0,1-7-16.47,5.16,5.16,0,0,1-.32-1.89c.17-2.79,3.76-3.86,5.12-4.27.88-.26,3.75-1.26,3.54-3a4.59,4.59,0,0,0-.46-1.27,3.16,3.16,0,0,1-.34-3,3.48,3.48,0,0,1,1.61-1.36l8.41-4.42a4.14,4.14,0,0,1,1.9-.6c1.39,0,2.2,1,2.92,1.85a7.32,7.32,0,0,0,.87.94c1.29,1.1,3.49.9,6.7-.6L256,40.82a2.59,2.59,0,0,1,2.1-.24,2.44,2.44,0,0,1,1.12,1.15l10.32,18.21a3,3,0,0,1,.47,2.55A2.59,2.59,0,0,1,268.77,63.77Zm-20.94,8.08c6.41-3.35,13-6.46,19.66-9.26.43-.18.89-.4,1-.67s-.11-.75-.37-1.21L257.79,42.49c-.07-.12-.23-.41-.32-.45s-.24,0-.71.22l-4.56,2.12c-2.48,1.16-6.06,2.46-8.53.37a8.9,8.9,0,0,1-1.07-1.15c-.64-.77-1.07-1.25-1.62-1.25a2.76,2.76,0,0,0-1.1.41l-8.41,4.41a2.26,2.26,0,0,0-.93.69c-.19.36,0,.84.37,1.59a5.49,5.49,0,0,1,.6,1.75c.25,2-1.46,3.73-4.7,4.7-1.65.49-3.86,1.32-4,2.84a4,4,0,0,0,.26,1.34,90.13,90.13,0,0,0,7.15,16.68.71.71,0,0,1,.09.28c4.29,1.61,9.4-.83,13.9-3.28C245.44,73.12,246.63,72.48,247.83,71.85Z" transform="translate(-29.16 -3)"/><path class="cls-1" d="M243.74,68A11.34,11.34,0,0,1,238,69.25h0a8.87,8.87,0,0,1-7.2-3.88,7.3,7.3,0,0,1,.08-7.87,9,9,0,0,1,2.39-2.38,10.61,10.61,0,0,1,10.84-.89c3.52,1.89,5.22,6.32,3.7,9.67A8.88,8.88,0,0,1,243.74,68Zm-5.69-.34c3.58.18,6.95-1.63,8.2-4.39s-.18-6.14-3-7.65a9,9,0,0,0-9,.78,7.46,7.46,0,0,0-2,2,5.71,5.71,0,0,0-.06,6.18,7.19,7.19,0,0,0,5.87,3.13Z" transform="translate(-29.16 -3)"/><path class="cls-1" d="M242.67,66.49a8.81,8.81,0,0,1-4.49,1h0a6.88,6.88,0,0,1-5.59-3,5.67,5.67,0,0,1,.06-6.12,7.11,7.11,0,0,1,1.86-1.85,8.25,8.25,0,0,1,8.42-.69,6.08,6.08,0,0,1,2.87,7.52A6.83,6.83,0,0,1,242.67,66.49Zm-4.43-.27a6.6,6.6,0,0,0,6.38-3.4,4.84,4.84,0,0,0-2.32-6,7,7,0,0,0-7,.61A6,6,0,0,0,233.73,59a4.46,4.46,0,0,0,0,4.8,5.56,5.56,0,0,0,4.55,2.42Z" transform="translate(-29.16 -3)"/><path class="cls-1" d="M260.12,65.85l0,0a.67.67,0,0,1-.86-.32,62.87,62.87,0,0,0-11.38-16.84.6.6,0,0,1,0-.87.68.68,0,0,1,.92,0,64.06,64.06,0,0,1,11.6,17.17A.59.59,0,0,1,260.12,65.85Z" transform="translate(-29.16 -3)"/><path class="cls-1" d="M254.46,42.85a.67.67,0,0,1-.37.07.63.63,0,0,1-.58-.67.38.38,0,0,0-.18-.33,1.08,1.08,0,0,0-.88-.18,3.53,3.53,0,0,0-1.61,1.43L249.47,45a.66.66,0,0,1-.9.14.61.61,0,0,1-.14-.87l1.37-1.82a4.55,4.55,0,0,1,2.27-1.89,2.37,2.37,0,0,1,2.07.4,1.56,1.56,0,0,1,.65,1.4A.62.62,0,0,1,254.46,42.85Z" transform="translate(-29.16 -3)"/><path class="cls-1" d="M238.4,50a5.31,5.31,0,0,1-2.76.79,2.52,2.52,0,0,1-1.77-.94,1.8,1.8,0,0,1-.3-.56.69.69,0,0,1-.46-.32.6.6,0,0,1,.27-.84l5.79-2.94a.7.7,0,0,1,.51,0,1.78,1.78,0,0,1,1.11,1,2.29,2.29,0,0,1-.11,2A5.15,5.15,0,0,1,238.4,50Zm-3.62-1.18a.56.56,0,0,0,.13.3,1.2,1.2,0,0,0,.83.44,4,4,0,0,0,2.08-.67,4,4,0,0,0,1.73-1.33,1.14,1.14,0,0,0,0-.92.56.56,0,0,0-.12-.2Z" transform="translate(-29.16 -3)"/><path class="cls-1" d="M256.78,50.73A4.63,4.63,0,0,1,253,51a.61.61,0,0,1-.35-.81.41.41,0,0,1,.07-.11l-.11-.11a.6.6,0,0,1,.1-.87l5-3.78a.63.63,0,0,1,.56-.12.66.66,0,0,1,.44.37,4.1,4.1,0,0,1-1.9,5.21Zm-3.1-.85a3.22,3.22,0,0,0,3.13-.7,3,3,0,0,0,.88-2.34Z" transform="translate(-29.16 -3)"/><path class="cls-1" d="M1216.78,152.54l-.61.28c-7.86,3.3-15.62,7-23.09,11.1-5.14,2.79-11.06,5.56-16.23,3a.77.77,0,0,1-.35-1.07l0,0a90.91,90.91,0,0,1-7-16.47,5.15,5.15,0,0,1-.33-1.89c.17-2.79,3.77-3.87,5.12-4.27.89-.26,3.76-1.26,3.55-3a4.42,4.42,0,0,0-.47-1.27,3.19,3.19,0,0,1-.33-3,3.56,3.56,0,0,1,1.61-1.37l8.4-4.41a4.18,4.18,0,0,1,1.91-.6c1.38,0,2.2,1,2.92,1.85a8,8,0,0,0,.86.94c1.3,1.1,3.49.9,6.71-.6l4.56-2.13a2.54,2.54,0,0,1,2.09-.24,2.43,2.43,0,0,1,1.13,1.15l10.32,18.21a3,3,0,0,1,.47,2.55A2.61,2.61,0,0,1,1216.78,152.54Zm-20.93,8.08c6.4-3.35,13-6.46,19.65-9.26.43-.18.9-.4,1-.67s-.12-.75-.38-1.22l-10.32-18.21c-.07-.12-.23-.41-.33-.45s-.23,0-.7.21l-4.56,2.13c-2.48,1.16-6.07,2.46-8.54.36a8.74,8.74,0,0,1-1.06-1.14c-.65-.78-1.08-1.25-1.62-1.25a2.72,2.72,0,0,0-1.11.4l-8.41,4.42a2.22,2.22,0,0,0-.92.69c-.2.36,0,.84.36,1.59a5.79,5.79,0,0,1,.61,1.74c.24,2-1.47,3.74-4.7,4.7-1.66.5-3.87,1.33-4,2.85a3.54,3.54,0,0,0,.26,1.33,89.8,89.8,0,0,0,7.14,16.68,1,1,0,0,1,.1.28c4.28,1.61,9.4-.82,13.89-3.27Z" transform="translate(-29.16 -3)"/><path class="cls-1" d="M1191.75,156.77A11.32,11.32,0,0,1,1186,158h0a8.84,8.84,0,0,1-7.2-3.89,7.28,7.28,0,0,1,.07-7.87,9,9,0,0,1,2.39-2.38,10.68,10.68,0,0,1,10.85-.89c3.52,1.89,5.21,6.32,3.7,9.68A8.86,8.86,0,0,1,1191.75,156.77Zm-5.69-.35c3.58.18,7-1.62,8.2-4.39s-.17-6.14-3-7.65a9,9,0,0,0-9.06.79,7.31,7.31,0,0,0-2,2,5.73,5.73,0,0,0-.06,6.18,7.18,7.18,0,0,0,5.87,3.12Z" transform="translate(-29.16 -3)"/><path class="cls-1" d="M1190.68,155.26a8.79,8.79,0,0,1-4.49,1h0a6.87,6.87,0,0,1-5.59-3,5.68,5.68,0,0,1,.06-6.11,7.11,7.11,0,0,1,1.86-1.85,8.26,8.26,0,0,1,8.42-.69,6.07,6.07,0,0,1,2.88,7.51A6.92,6.92,0,0,1,1190.68,155.26Zm-4.42-.27a6.58,6.58,0,0,0,6.37-3.41,4.8,4.8,0,0,0-2.32-5.94,7,7,0,0,0-7,.61,5.53,5.53,0,0,0-1.53,1.52,4.46,4.46,0,0,0,0,4.8,5.59,5.59,0,0,0,4.56,2.42Z" transform="translate(-29.16 -3)"/><path class="cls-1" d="M1208.14,154.62l-.05,0a.65.65,0,0,1-.85-.31,62.68,62.68,0,0,0-11.39-16.84.6.6,0,0,1,.05-.88.66.66,0,0,1,.91,0,64.1,64.1,0,0,1,11.61,17.17A.6.6,0,0,1,1208.14,154.62Z" transform="translate(-29.16 -3)"/><path class="cls-1" d="M1202.47,131.62a.7.7,0,0,1-.36.07.63.63,0,0,1-.59-.67.38.38,0,0,0-.18-.33,1,1,0,0,0-.88-.18,3.5,3.5,0,0,0-1.6,1.43l-1.37,1.83a.67.67,0,0,1-.9.14.61.61,0,0,1-.15-.87l1.37-1.82a4.65,4.65,0,0,1,2.28-1.9,2.38,2.38,0,0,1,2.07.41,1.59,1.59,0,0,1,.65,1.4A.62.62,0,0,1,1202.47,131.62Z" transform="translate(-29.16 -3)"/><path class="cls-1" d="M1186.41,138.8a5.18,5.18,0,0,1-2.75.8,2.54,2.54,0,0,1-1.78-.94,1.74,1.74,0,0,1-.3-.57.61.61,0,0,1-.19-1.15l5.8-2.95a.71.71,0,0,1,.5,0,1.78,1.78,0,0,1,1.11,1,2.25,2.25,0,0,1-.1,2A5.2,5.2,0,0,1,1186.41,138.8Zm-3.62-1.17a.54.54,0,0,0,.13.29,1.23,1.23,0,0,0,.83.45,4.16,4.16,0,0,0,2.09-.68,3.92,3.92,0,0,0,1.72-1.32,1.1,1.1,0,0,0,0-.92.77.77,0,0,0-.13-.2Z" transform="translate(-29.16 -3)"/><path class="cls-1" d="M1204.79,139.5a4.61,4.61,0,0,1-3.79.22.61.61,0,0,1-.35-.81l.06-.11-.11-.11a.6.6,0,0,1,.11-.87l5-3.79a.65.65,0,0,1,.56-.11.61.61,0,0,1,.43.36,4.14,4.14,0,0,1-1,4.55A4,4,0,0,1,1204.79,139.5Zm-3.1-.85a3.26,3.26,0,0,0,3.14-.7,3,3,0,0,0,.87-2.34Z" transform="translate(-29.16 -3)"/><path class="cls-1" d="M1012.71,199.85a4.77,4.77,0,0,1-.51-.42,253.1,253.1,0,0,0-20-15.66c-4.77-3.36-9.82-7.41-9.48-13a.82.82,0,0,1,.88-.75h.06a96.52,96.52,0,0,1,12.78-12.87,5.63,5.63,0,0,1,1.67-1c2.72-1,5.22,1.71,6.16,2.73.61.67,2.73,2.77,4.29,1.88a4.78,4.78,0,0,0,1-.93,3.46,3.46,0,0,1,2.69-1.51,3.66,3.66,0,0,1,2,.85l7.64,5.55a3.94,3.94,0,0,1,1.35,1.42c.57,1.22,0,2.33-.56,3.32a7.24,7.24,0,0,0-.54,1.14c-.51,1.59.57,3.43,3.32,5.63l3.89,3.12a1.95,1.95,0,0,1,.45,3.19L1016.68,199a3.21,3.21,0,0,1-2.23,1.45A2.69,2.69,0,0,1,1012.71,199.85Zm-16.25-15c5.8,4.23,11.46,8.73,16.85,13.41.35.3.75.62,1.05.61s.67-.41,1-.83l13.08-16.5c.09-.11.3-.37.29-.47s-.08-.21-.49-.53l-3.89-3.12c-2.11-1.7-4.81-4.3-3.84-7.32a8.14,8.14,0,0,1,.65-1.4c.48-.89.75-1.46.53-1.93a2.62,2.62,0,0,0-.84-.81l-7.64-5.55a2.35,2.35,0,0,0-1-.53c-.43,0-.8.36-1.37,1a5.92,5.92,0,0,1-1.41,1.25c-1.82,1-4.15.24-6.39-2.19-1.15-1.25-2.84-2.84-4.32-2.3a4.26,4.26,0,0,0-1.17.77,94,94,0,0,0-12.92,13.09,1.07,1.07,0,0,1-.23.2c.22,4.41,4.63,7.89,8.8,10.82C994.27,183.26,995.37,184,996.46,184.84Z" transform="translate(-29.16 -3)"/><path class="cls-1" d="M998.44,179.68a10.54,10.54,0,0,1-3.55-4.55h0a7.83,7.83,0,0,1,8.25-11.06,9.59,9.59,0,0,1,3.24,1.13,9.77,9.77,0,0,1,5.29,9.13,8.15,8.15,0,0,1-7.68,7.2A9.34,9.34,0,0,1,998.44,179.68Zm-2-5.13a8.39,8.39,0,0,0,7.54,5.38,6.45,6.45,0,0,0,6-5.74,8.3,8.3,0,0,0-4.45-7.61,7.85,7.85,0,0,0-2.66-.93,6.3,6.3,0,0,0-5.9,2.48,6.61,6.61,0,0,0-.57,6.42Z" transform="translate(-29.16 -3)"/><path class="cls-1" d="M999.44,178.12a8.28,8.28,0,0,1-2.77-3.53h0a6.09,6.09,0,0,1,6.41-8.59,7.35,7.35,0,0,1,2.52.87,7.62,7.62,0,0,1,4.11,7.1,6.33,6.33,0,0,1-6,5.59A7.18,7.18,0,0,1,999.44,178.12Zm-1.56-4a6.5,6.5,0,0,0,5.85,4.18,5,5,0,0,0,4.7-4.46A6.44,6.44,0,0,0,1005,168a5.78,5.78,0,0,0-2.06-.72,4.89,4.89,0,0,0-4.58,1.92,5.11,5.11,0,0,0-.44,5Z" transform="translate(-29.16 -3)"/><path class="cls-1" d="M1007.19,193.14l0,0a.6.6,0,0,1,0-.87,63,63,0,0,0,11.34-16.87.65.65,0,0,1,.85-.32.61.61,0,0,1,.34.81,63.88,63.88,0,0,1-11.57,17.2A.66.66,0,0,1,1007.19,193.14Z" transform="translate(-29.16 -3)"/><path class="cls-1" d="M1026.74,178.76a.58.58,0,0,1-.22-.29.61.61,0,0,1,.4-.79.42.42,0,0,0,.24-.29,1,1,0,0,0-.19-.85,3.61,3.61,0,0,0-2-.81l-2.3-.46a.62.62,0,0,1-.5-.73.64.64,0,0,1,.76-.48l2.3.45a4.8,4.8,0,0,1,2.73,1.22,2.16,2.16,0,0,1,.46,2,1.62,1.62,0,0,1-1.06,1.14A.66.66,0,0,1,1026.74,178.76Z" transform="translate(-29.16 -3)"/><path class="cls-1" d="M1013.32,167.64a5,5,0,0,1-1.88-2.09,2.32,2.32,0,0,1,.17-1.94,1.78,1.78,0,0,1,.41-.49.61.61,0,0,1,.12-.53.66.66,0,0,1,.9-.11l5.18,3.87a.62.62,0,0,1,.24.42,1.7,1.7,0,0,1-.52,1.4,2.55,2.55,0,0,1-1.91.71A5.29,5.29,0,0,1,1013.32,167.64ZM1013,164a.63.63,0,0,0-.23.23,1.16,1.16,0,0,0-.08.91,3.78,3.78,0,0,0,1.5,1.55,4.08,4.08,0,0,0,2,1,1.2,1.2,0,0,0,.89-.34.46.46,0,0,0,.14-.19Z" transform="translate(-29.16 -3)"/><path class="cls-1" d="M1020.19,184a4.22,4.22,0,0,1-1.76-3.24.63.63,0,0,1,.63-.63h.13a.35.35,0,0,1,.06-.14.66.66,0,0,1,.87-.27l5.64,2.82a.65.65,0,0,1,.34.45.63.63,0,0,1-.17.53,4.58,4.58,0,0,1-4.71,1A4.43,4.43,0,0,1,1020.19,184Zm-.46-3.06a3.05,3.05,0,0,0,1.95,2.45,3.34,3.34,0,0,0,2.59-.19Z" transform="translate(-29.16 -3)"/><path class="cls-1" d="M946,303.24a179.46,179.46,0,0,1-25.12,6.49c-2.55.46-5.72.74-7.72-1.22l-.07-.08-1.43-1.76a1.07,1.07,0,0,1-.16-.32,56.42,56.42,0,0,0-8.77-17.86,9.6,9.6,0,0,1-2-5c-.34-4.91,3.73-6.29,6.43-7.2,12.29-4.16,24.58-8.77,36.55-13.72a9.11,9.11,0,0,1,6.9,0,8.56,8.56,0,0,1,4.81,4.76l10.16,25.28a2.83,2.83,0,0,1,.26,1.52c-.19,1.16-1.4,1.72-1.91,2A176.39,176.39,0,0,1,946,303.24Zm-31.43,4c1.36,1.29,3.77,1.06,5.95.66a176.29,176.29,0,0,0,42.61-13.52c.71-.32.84-.51.85-.6a1.67,1.67,0,0,0-.16-.56L953.68,268a6.68,6.68,0,0,0-3.76-3.72,7.07,7.07,0,0,0-5.4,0c-12,5-24.34,9.59-36.67,13.76-3.16,1.07-5.39,2.08-5.16,5.34a7.8,7.8,0,0,0,1.63,4.08,58.16,58.16,0,0,1,9,18.24Z" transform="translate(-29.16 -3)"/><path class="cls-1" d="M937.43,293.59a.94.94,0,0,1-.3.05c-6.17.08-12.07-1.93-17.78-3.88l-2-.68c-5-1.66-10-3.16-15.12-4.44a.92.92,0,0,1-.68-1.12,1,1,0,0,1,1.17-.66c5.13,1.3,10.26,2.8,15.27,4.49l2,.68c5.32,1.81,10.81,3.69,16.39,3.77A89.25,89.25,0,0,1,949.48,265a1,1,0,0,1,1.33-.24.9.9,0,0,1,.25,1.28A87.39,87.39,0,0,0,938,293,.92.92,0,0,1,937.43,293.59Z" transform="translate(-29.16 -3)"/><path class="cls-1" d="M917,308.48a1,1,0,0,1-.83-.09.89.89,0,0,1-.31-1.26l10.47-16.21a1,1,0,0,1,1.31-.3.9.9,0,0,1,.31,1.27L917.53,308.1A1,1,0,0,1,917,308.48Z" transform="translate(-29.16 -3)"/><path class="cls-1" d="M962.72,294.9a.94.94,0,0,1-.64,0l-23.39-8.26a.91.91,0,0,1-.57-1.18,1,1,0,0,1,1.23-.55l23.39,8.27a.91.91,0,0,1,.57,1.18A1,1,0,0,1,962.72,294.9Z" transform="translate(-29.16 -3)"/><path class="cls-1" d="M325.34,143.07a81.56,81.56,0,0,1-7.76,9.47c-.85.89-2,1.87-3.36,1.67h-.05l-1.08-.29a.48.48,0,0,1-.16-.08,29.33,29.33,0,0,0-8.75-4.47,5,5,0,0,1-2.27-1.39c-1.61-1.8-.45-3.46.32-4.57,3.5-5,6.87-10.19,10-15.42a4.23,4.23,0,0,1,2.66-1.92,4.36,4.36,0,0,1,3.29.51l11.53,7a1.51,1.51,0,0,1,.56.52,1.38,1.38,0,0,1-.15,1.29A80.12,80.12,0,0,1,325.34,143.07Zm-10.95,10.26c.92.13,1.78-.63,2.5-1.39a79.06,79.06,0,0,0,12.41-17c.17-.33.17-.44.15-.47a.72.72,0,0,0-.23-.17l-11.53-7a3.4,3.4,0,0,0-2.57-.4,3.33,3.33,0,0,0-2.09,1.5c-3.14,5.25-6.52,10.45-10,15.48-.9,1.29-1.46,2.29-.39,3.49a4.07,4.07,0,0,0,1.85,1.13,30.15,30.15,0,0,1,9,4.56Z" transform="translate(-29.16 -3)"/><path class="cls-1" d="M319.11,141.72a.35.35,0,0,1-.1.11c-2.36,1.74-5.24,2.59-8,3.42l-1,.29c-2.42.73-4.84,1.56-7.18,2.47a.45.45,0,0,1-.6-.24.43.43,0,0,1,.25-.58c2.37-.92,4.81-1.76,7.25-2.49l1-.3a25.66,25.66,0,0,0,7.47-3.08,42.31,42.31,0,0,1-3-14,.46.46,0,0,1,.92,0,41.48,41.48,0,0,0,3.06,14A.4.4,0,0,1,319.11,141.72Z" transform="translate(-29.16 -3)"/><path class="cls-1" d="M315.71,153.13a.48.48,0,0,1-.85-.21l-.83-9.16a.46.46,0,0,1,.92-.08l.83,9.16A.47.47,0,0,1,315.71,153.13Z" transform="translate(-29.16 -3)"/><path class="cls-1" d="M329.28,135.22a.39.39,0,0,1-.25.18l-11.52,3.28a.47.47,0,0,1-.58-.29.45.45,0,0,1,.31-.56l11.53-3.28a.47.47,0,0,1,.57.3A.4.4,0,0,1,329.28,135.22Z" transform="translate(-29.16 -3)"/><path class="cls-1" d="M152.91,67.13A86.36,86.36,0,0,1,141,63.21c-1.14-.48-2.49-1.19-2.74-2.49v0l-.08-1.08a.55.55,0,0,1,0-.17,26.7,26.7,0,0,0,1.52-9.4,4.61,4.61,0,0,1,.62-2.52c1.25-2,3.26-1.54,4.6-1.2,6.08,1.52,12.29,2.87,18.46,4a4.23,4.23,0,0,1,2.77,1.78,3.92,3.92,0,0,1,.58,3.15L163.74,68a1.29,1.29,0,0,1-.32.67,1.49,1.49,0,0,1-1.31.29A86.88,86.88,0,0,1,152.91,67.13Zm-13.69-6.55c.18.87,1.2,1.41,2.19,1.81A85,85,0,0,0,162.24,68c.37,0,.48,0,.51,0a.71.71,0,0,0,.09-.26L165.9,55a3,3,0,0,0-.45-2.46,3.28,3.28,0,0,0-2.17-1.39c-6.19-1.13-12.43-2.48-18.52-4-1.57-.39-2.74-.56-3.57.8a3.85,3.85,0,0,0-.5,2,27.21,27.21,0,0,1-1.54,9.62Z" transform="translate(-29.16 -3)"/><path class="cls-1" d="M152.19,61.05a.38.38,0,0,1-.13-.06,24.26,24.26,0,0,1-6-6.16l-.61-.79c-1.51-1.95-3.13-3.87-4.79-5.7a.42.42,0,0,1,0-.62.47.47,0,0,1,.65,0c1.69,1.84,3.31,3.78,4.84,5.75l.61.79a24.65,24.65,0,0,0,5.49,5.76,46.22,46.22,0,0,1,12.77-7.31.47.47,0,0,1,.6.26.44.44,0,0,1-.26.57A45,45,0,0,0,152.61,61,.52.52,0,0,1,152.19,61.05Z" transform="translate(-29.16 -3)"/><path class="cls-1" d="M139.85,61.71a.47.47,0,0,1-.3-.25.44.44,0,0,1,.23-.59l8.74-3.76a.47.47,0,0,1,.61.22.44.44,0,0,1-.23.59l-8.74,3.76A.48.48,0,0,1,139.85,61.71Z" transform="translate(-29.16 -3)"/><path class="cls-1" d="M161.93,68.13a.5.5,0,0,1-.26-.17l-7-9.37a.43.43,0,0,1,.1-.62.48.48,0,0,1,.65.1l7,9.37a.43.43,0,0,1-.1.62A.5.5,0,0,1,161.93,68.13Z" transform="translate(-29.16 -3)"/><path class="cls-1" d="M412.22,235.21a86.18,86.18,0,0,1-12.55.08c-1.25-.08-2.77-.32-3.45-1.47l0,0-.44-1a.33.33,0,0,1,0-.17,26.59,26.59,0,0,0-1.82-9.36,4.56,4.56,0,0,1-.28-2.57c.47-2.33,2.54-2.49,3.92-2.6,6.26-.5,12.59-1.21,18.8-2.11a4.33,4.33,0,0,1,3.22.79,4,4,0,0,1,1.64,2.78l1.53,13a1.32,1.32,0,0,1-.08.74,1.48,1.48,0,0,1-1.14.69A85.3,85.3,0,0,1,412.22,235.21ZM397,233.4c.47.76,1.62.94,2.69,1a85.9,85.9,0,0,0,21.6-1.32c.38-.07.46-.14.48-.18a.87.87,0,0,0,0-.28l-1.53-13a3.09,3.09,0,0,0-1.28-2.17,3.37,3.37,0,0,0-2.52-.63c-6.24.91-12.58,1.63-18.86,2.12-1.62.13-2.78.34-3.09,1.89a3.69,3.69,0,0,0,.24,2.09,27.56,27.56,0,0,1,1.87,9.57Z" transform="translate(-29.16 -3)"/><path class="cls-1" d="M409.44,229.7h-.15a25.27,25.27,0,0,1-7.8-3.9l-.85-.55c-2.1-1.36-4.28-2.65-6.49-3.84a.44.44,0,0,1-.17-.61.46.46,0,0,1,.62-.17c2.23,1.21,4.44,2.51,6.56,3.88l.85.56a25.52,25.52,0,0,0,7.17,3.68,44,44,0,0,1,9.52-11,.48.48,0,0,1,.65,0,.44.44,0,0,1-.05.63,43.5,43.5,0,0,0-9.5,11A.45.45,0,0,1,409.44,229.7Z" transform="translate(-29.16 -3)"/><path class="cls-1" d="M398,234.25a.45.45,0,0,1-.38-.13.44.44,0,0,1,0-.63l6.94-6.34a.48.48,0,0,1,.66,0,.44.44,0,0,1,0,.63l-6.94,6.33A.39.39,0,0,1,398,234.25Z" transform="translate(-29.16 -3)"/><path class="cls-1" d="M421.07,233.27a.46.46,0,0,1-.3-.07l-9.86-6.6a.43.43,0,0,1-.11-.62.47.47,0,0,1,.64-.11l9.86,6.6a.44.44,0,0,1,.12.62A.48.48,0,0,1,421.07,233.27Z" transform="translate(-29.16 -3)"/><path class="cls-1" d="M450.71,326.53a23.24,23.24,0,0,1-9.41-2.31c-2.5-1.16-6.89-3.66-8.15-7.39a6.49,6.49,0,0,1,.61-5.45l.56-1,0-.06,1.35-2.41,12.18-21.82a7.8,7.8,0,0,1-2.77.31,18.74,18.74,0,0,1-3.27-.64c-.67-.17-1.3-.33-1.94-.44-1.18-.21-4.32,0-4.9.51a1.25,1.25,0,0,1-1.64.46,1.17,1.17,0,0,1-.53-1.6h0c2-3.72,7.46-4.95,11.67-4.51,1.48.15,2.8-.37,4.56-1.81.2-.16.51-.49.84-.83,1.27-1.32,2.69-2.81,4.29-2.67a2,2,0,0,1,1.67.95c.65,1.09,0,2.43-.44,3.32a23.88,23.88,0,0,1-2.77,4.18,25.71,25.71,0,0,0-2.18,3.14l-12.11,21.67a24.76,24.76,0,0,1,4.5-.48l1,0c4.3-.23,9.21-.14,13.08,2.36,4.1,2.65,5.51,7.76,3.21,11.61C458,325.17,454.49,326.53,450.71,326.53Zm-14.3-14.89-.48.86a4.27,4.27,0,0,0-.44,3.6c1,3,5.16,5.19,6.89,6,1.91.89,11.63,5,15.61-1.69,1.86-3.11.21-6.76-2.45-8.48-3.26-2.1-7.67-2.17-11.55-1.95l-1,0C440.56,310.12,438.05,310.23,436.41,311.64Zm2.95-28.72a8.53,8.53,0,0,1,1,.07c.74.12,1.45.31,2.14.49a16.65,16.65,0,0,0,2.83.56,7,7,0,0,0,2.89-.55c.53-.17,1.06-.35,1.65-.49.28-.37.55-.73.83-1.08a22.57,22.57,0,0,0,2.49-3.72c.08-.17.21-.44.32-.7a14.93,14.93,0,0,0-1.76,1.65,13.54,13.54,0,0,1-1.06,1,8.63,8.63,0,0,1-6.43,2.36A13.75,13.75,0,0,0,439.36,282.92Z" transform="translate(-29.16 -3)"/><path class="cls-1" d="M441.82,320.28h-.09a4.93,4.93,0,0,1-3.54-2.1,11.55,11.55,0,0,1-1.45-3.13,2.6,2.6,0,0,1,.19-2.26,1.73,1.73,0,0,1,1.32-.73,1.21,1.21,0,0,1,1.31,1.1,1.15,1.15,0,0,1-.5,1l0,.12a9.62,9.62,0,0,0,1.12,2.5,2.51,2.51,0,0,0,1.71,1.1,1.19,1.19,0,0,1,1.13,1.27A1.22,1.22,0,0,1,441.82,320.28Z" transform="translate(-29.16 -3)"/><path class="cls-1" d="M442.31,313.63a1.23,1.23,0,0,1-1.21-1,1.18,1.18,0,0,1,1-1.39l1.14-.2a1.23,1.23,0,0,1,1.44.94,1.18,1.18,0,0,1-1,1.38l-1.14.21Z" transform="translate(-29.16 -3)"/><path class="cls-1" d="M185.58,306.1a18.7,18.7,0,0,1-7.35,2.76c-2.23.37-6.37.72-9-1.17a5.44,5.44,0,0,1-2.29-3.88c-.05-.31-.09-.61-.13-.92a.13.13,0,0,0,0-.06l-.3-2.2-2.72-20a6.27,6.27,0,0,1-1.68,1.47,14.8,14.8,0,0,1-2.48,1.06c-.53.19-1,.37-1.5.59-.88.4-2.85,2-3,2.57a1,1,0,0,1-.85,1.05,1,1,0,0,1-1.14-.82h0c-.5-3.38,2.49-6.67,5.48-8.29,1.06-.58,1.67-1.53,2.13-3.28,0-.19.09-.55.14-.93.19-1.44.39-3.08,1.51-3.71a1.73,1.73,0,0,1,1.58-.14c1,.43,1.2,1.61,1.35,2.4a19.85,19.85,0,0,1,.24,4,20.64,20.64,0,0,0,.1,3.07l2.71,19.83a19.17,19.17,0,0,1,2.74-2.37c.21-.15.41-.31.61-.47,2.73-2.11,6-4.29,9.81-4.39,4-.12,7.47,2.61,7.86,6.21C189.72,301.9,188.08,304.38,185.58,306.1Zm-16.8-3.33.11.79a3.51,3.51,0,0,0,1.49,2.57c2.15,1.53,6,1.09,7.5.83,1.7-.28,10.14-2,9.48-8.22-.31-2.9-3.19-4.56-5.8-4.49-3.2.09-6.14,2.06-8.6,4l-.64.49C170.77,299.88,169.17,301.09,168.78,302.77Zm-12.25-20.32c.4-.25.68-.4.69-.4.55-.25,1.11-.45,1.66-.65a13.5,13.5,0,0,0,2.14-.91,5.55,5.55,0,0,0,1.65-1.69,12.62,12.62,0,0,1,.84-1.07c0-.37,0-.73,0-1.09a17.63,17.63,0,0,0-.19-3.59c0-.16-.08-.39-.13-.62a12.55,12.55,0,0,0-.36,1.9,8.66,8.66,0,0,1-.18,1.16,6.63,6.63,0,0,1-3.09,4.48A10.91,10.91,0,0,0,156.53,282.45Z" transform="translate(-29.16 -3)"/><path class="cls-1" d="M176.62,306l-.06,0a4.1,4.1,0,0,1-3.38.22,9.84,9.84,0,0,1-2.5-1.4,2.23,2.23,0,0,1-1-1.58,1.31,1.31,0,0,1,.51-1.08,1,1,0,0,1,1.42.12,1,1,0,0,1,.18.92l.07.06a8.7,8.7,0,0,0,2,1.15,2.13,2.13,0,0,0,1.68,0,1,1,0,0,1,1.37.32A.93.93,0,0,1,176.62,306Z" transform="translate(-29.16 -3)"/><path class="cls-1" d="M173.66,301.4a1,1,0,0,1-1.28-.08,1,1,0,0,1,0-1.37l.65-.65a1,1,0,0,1,1.42,0,.93.93,0,0,1,0,1.36l-.65.65A.53.53,0,0,1,173.66,301.4Z" transform="translate(-29.16 -3)"/><path class="cls-1" d="M1083.17,225.27a14.51,14.51,0,0,1-5.91-1.44c-1.58-.73-4.34-2.3-5.14-4.64a4.1,4.1,0,0,1,.38-3.43c.12-.21.24-.42.35-.63l0,0,.85-1.52,7.64-13.73a4.79,4.79,0,0,1-1.74.2,11.38,11.38,0,0,1-2.06-.4c-.42-.11-.82-.21-1.22-.28a6.61,6.61,0,0,0-3.08.33.79.79,0,0,1-1,.29.73.73,0,0,1-.33-1h0c1.27-2.35,4.69-3.12,7.33-2.85a3.8,3.8,0,0,0,2.87-1.14c.13-.11.32-.31.53-.53.8-.83,1.69-1.77,2.69-1.68a1.29,1.29,0,0,1,1.06.6c.41.68,0,1.52-.28,2.08a15.63,15.63,0,0,1-1.73,2.64,16.26,16.26,0,0,0-1.37,2l-7.6,13.64a15.2,15.2,0,0,1,2.83-.3l.61,0c2.7-.16,5.79-.1,8.23,1.46a5.47,5.47,0,0,1,2,7.31A6.5,6.5,0,0,1,1083.17,225.27Zm-9-9.35-.3.54a2.63,2.63,0,0,0-.27,2.26c.64,1.89,3.24,3.27,4.33,3.77s7.32,3.11,9.82-1.08a4,4,0,0,0-1.55-5.33c-2-1.32-4.82-1.36-7.27-1.22l-.63,0C1076.78,215,1075.2,215,1074.17,215.92Zm1.83-18.07.62.05c.46.08.91.19,1.34.3a11,11,0,0,0,1.78.36,4.67,4.67,0,0,0,1.82-.35c.33-.11.67-.23,1-.32l.52-.68a13.81,13.81,0,0,0,1.56-2.34c0-.1.13-.27.2-.44a10.31,10.31,0,0,0-1.11,1,7.86,7.86,0,0,1-.66.65,5.5,5.5,0,0,1-4,1.49A8.89,8.89,0,0,0,1076,197.85Z" transform="translate(-29.16 -3)"/><path class="cls-1" d="M1077.58,221.35h-.06a3.08,3.08,0,0,1-2.22-1.32,7.09,7.09,0,0,1-.92-2,1.63,1.63,0,0,1,.12-1.42,1,1,0,0,1,.82-.46.76.76,0,0,1,.83.69.72.72,0,0,1-.31.65.14.14,0,0,0,0,.07,5.82,5.82,0,0,0,.71,1.58,1.56,1.56,0,0,0,1.07.69.74.74,0,0,1,.71.8A.76.76,0,0,1,1077.58,221.35Z" transform="translate(-29.16 -3)"/><path class="cls-1" d="M1077.88,217.17a.77.77,0,0,1-.76-.61.75.75,0,0,1,.62-.87l.71-.13a.79.79,0,0,1,.91.59.74.74,0,0,1-.62.87l-.71.13Z" transform="translate(-29.16 -3)"/><path class="cls-1" d="M293.4,244.42a3.69,3.69,0,0,1-1.85-.25,3.84,3.84,0,0,1-1.88-2.37c-.53-1.37-1-2.78-1.54-4.21-.76-2.14-1.55-4.36-2.42-6.46a32.54,32.54,0,0,0-1.47-3c-1.38-2.59-2.8-5.26-2.67-8.15a19.55,19.55,0,0,1,2.08-6.8A31.47,31.47,0,0,0,285,210c.93-2.87,2.23-8.28.5-12.18-.74-1.66-1.8-4.71-.66-6.5A2.86,2.86,0,0,1,287.1,190h0c2-.13,4.4,1.07,5.85,2.14a11.92,11.92,0,0,1,4.39,6.52,18,18,0,0,1,.3,6.84,21.21,21.21,0,0,1-.45,2.32c-.41,1.8-.74,3.22.12,4.92a1.46,1.46,0,0,1,.09.16,10.59,10.59,0,0,0,1.75-1.46c.33-.32.6-.57.83-.75a46.48,46.48,0,0,1,5.22-3.43c2.43-1.37,6.06-3.06,9.63-1.87a6.1,6.1,0,0,1,3.93,4.75,4.6,4.6,0,0,1-.16,2.14,6.18,6.18,0,0,1,4.15,3.44,5.69,5.69,0,0,1-.2,4.74,5.63,5.63,0,0,1,1.11.39,5,5,0,0,1,2.71,3,4.66,4.66,0,0,1-.66,4,5.41,5.41,0,0,1-.89,1,6.07,6.07,0,0,1,2.28,2.68,3.31,3.31,0,0,1-.33,3.1,5.6,5.6,0,0,1-2.57,1.85,96.74,96.74,0,0,1-30.62,7.9Zm-6.11-52c-.31,0-.37.12-.4.16-.31.5-.13,2.18.83,4.33,1.93,4.36.84,9.92-.41,13.81a36,36,0,0,1-1.39,3.45,17.71,17.71,0,0,0-1.88,6c-.11,2.27,1.17,4.66,2.4,7,.56,1,1.13,2.13,1.57,3.18.89,2.15,1.69,4.4,2.46,6.57.5,1.41,1,2.8,1.51,4.16.11.28.35.92.61,1a2.17,2.17,0,0,0,.81,0,93.92,93.92,0,0,0,29.81-7.69,3.66,3.66,0,0,0,1.54-1,1,1,0,0,0,.09-1,4.94,4.94,0,0,0-3-2.37,1.19,1.19,0,0,1-.88-1.23,1.21,1.21,0,0,1,1.08-1.08,2.6,2.6,0,0,0,2.07-3.17,2.63,2.63,0,0,0-1.43-1.51,2.94,2.94,0,0,0-2.24-.16,1.26,1.26,0,0,1-1.53-.55,1.16,1.16,0,0,1,.38-1.53,3.52,3.52,0,0,0,1.27-4.13,3.83,3.83,0,0,0-3.92-2.11,1.25,1.25,0,0,1-1.34-.72,1.15,1.15,0,0,1,.43-1.41,1.85,1.85,0,0,0,.69-1.89,3.69,3.69,0,0,0-2.29-2.86c-2-.65-4.39-.12-7.57,1.68a43.07,43.07,0,0,0-4.95,3.25c-.12.09-.37.33-.62.57a10.78,10.78,0,0,1-2.43,1.92h0a2.22,2.22,0,0,1-2.19.07,3,3,0,0,1-1.17-1.34c-1.24-2.44-.77-4.48-.32-6.46a20,20,0,0,0,.41-2.1,15.77,15.77,0,0,0-.24-6,9.57,9.57,0,0,0-3.51-5.22,8,8,0,0,0-4.18-1.65Zm10,20.63Z" transform="translate(-29.16 -3)"/><path class="cls-1" d="M288.53,200.64h-.14a1.18,1.18,0,0,1-.38-2.31,3.22,3.22,0,0,0,0-.43l-.11-1.12a2.24,2.24,0,0,0-.2-.87l-.33,0a3.2,3.2,0,0,1-1.55-.06,1.17,1.17,0,0,1-.75-1.51,1.24,1.24,0,0,1,1.55-.73,2,2,0,0,0,.38,0,3.41,3.41,0,0,1,1.51,0c1.07.34,1.7,1.31,1.85,2.89l.11,1.12a3.51,3.51,0,0,1-.11,1.54A2.09,2.09,0,0,1,288.53,200.64Zm-1.92-7Z" transform="translate(-29.16 -3)"/><path class="cls-1" d="M284.79,248h-.3A1.94,1.94,0,0,1,283,247a28.3,28.3,0,0,1-2.1-4.87A148.62,148.62,0,0,1,275,223a1.13,1.13,0,0,1,.21-.94,1.22,1.22,0,0,1,.86-.47,33.11,33.11,0,0,0,6.24-1.3,1.24,1.24,0,0,1,1.55.76,1.18,1.18,0,0,1-.79,1.5,36.44,36.44,0,0,1-5.38,1.22,158.07,158.07,0,0,0,5.51,17.59,28.19,28.19,0,0,0,1.66,4,28.22,28.22,0,0,1,3.2-1.57,21.38,21.38,0,0,0,3.2-1.6,1.26,1.26,0,0,1,1.73.18,1.16,1.16,0,0,1-.19,1.67,20.83,20.83,0,0,1-3.7,1.9,19.76,19.76,0,0,0-3.19,1.61A2.17,2.17,0,0,1,284.79,248Z" transform="translate(-29.16 -3)"/><path class="cls-1" d="M285.66,243.55a2.14,2.14,0,0,1-.62,0,1.19,1.19,0,0,1-1-1.4s0-.06,0-.1a3.64,3.64,0,0,1-.12-1.78,2.35,2.35,0,0,1,2.31-1.87,2.24,2.24,0,0,1,2.1,1.94,2.82,2.82,0,0,1-.72,2.16A2.94,2.94,0,0,1,285.66,243.55Z" transform="translate(-29.16 -3)"/><path class="cls-1" d="M649,32.12a2.25,2.25,0,0,1-.8-.82,2.3,2.3,0,0,1,.06-1.86c.3-.86.64-1.74,1-2.62.5-1.33,1-2.7,1.47-4.05.19-.61.34-1.28.5-2a10.22,10.22,0,0,1,2-5,13.07,13.07,0,0,1,3.79-2.52,20.82,20.82,0,0,0,2-1.07c1.63-1,4.47-3.18,5.23-5.72.32-1.09,1-3,2.34-3.4a1.81,1.81,0,0,1,1.64.24l0,0a5.89,5.89,0,0,1,2,3.24,7.23,7.23,0,0,1-.54,4.83A11.72,11.72,0,0,1,667,14.86c-.39.36-.79.67-1.17,1a4.24,4.24,0,0,0-2,2.43l0,.11a6.5,6.5,0,0,0,1.45-.05c.29,0,.52,0,.71,0a32.5,32.5,0,0,1,3.94.3c1.74.25,4.19.8,5.44,2.73a3.62,3.62,0,0,1,0,3.78,2.91,2.91,0,0,1-1,1,3.58,3.58,0,0,1,.61,3.23,3.72,3.72,0,0,1-2,2.23,4.17,4.17,0,0,1,.38.61,3,3,0,0,1,.1,2.46,3.09,3.09,0,0,1-2,1.7,3.56,3.56,0,0,1-.84.16,3.62,3.62,0,0,1,0,2.16A2.21,2.21,0,0,1,669.24,40a3.8,3.8,0,0,1-2-.07,59.83,59.83,0,0,1-18.09-7.71ZM667.35,4.56c-.16-.1-.23-.08-.26-.07a4.12,4.12,0,0,0-1.37,2.41c-.85,2.85-3.65,5.13-5.85,6.55a23.29,23.29,0,0,1-2.09,1.15,12,12,0,0,0-3.36,2.19,9.31,9.31,0,0,0-1.68,4.29c-.16.72-.32,1.46-.54,2.13-.45,1.38-1,2.77-1.5,4.12-.33.87-.66,1.74-1,2.59-.06.18-.2.58-.13.73A1.45,1.45,0,0,0,650,31a58.19,58.19,0,0,0,17.62,7.5,2.38,2.38,0,0,0,1.15.1.64.64,0,0,0,.45-.45,2.87,2.87,0,0,0-.51-2.3.7.7,0,0,1,.08-.92.77.77,0,0,1,1-.12,1.6,1.6,0,0,0,1.28.1,1.64,1.64,0,0,0,1-.86,1.54,1.54,0,0,0-.08-1.27,1.73,1.73,0,0,0-1-.92.75.75,0,0,1-.52-.85.77.77,0,0,1,.81-.6,2.36,2.36,0,0,0,2.31-1.52,2.24,2.24,0,0,0-1-2.51.72.72,0,0,1-.36-.85.78.78,0,0,1,.79-.53,1.21,1.21,0,0,0,1.11-.65,2.19,2.19,0,0,0,.05-2.25c-.69-1.07-2.07-1.72-4.36-2a27.31,27.31,0,0,0-3.73-.29l-.53,0a7.23,7.23,0,0,1-2,0h0a1.34,1.34,0,0,1-1.09-.79,1.8,1.8,0,0,1,0-1.1,5.64,5.64,0,0,1,2.49-3.25c.35-.27.72-.55,1.06-.86a10.58,10.58,0,0,0,2.33-3A5.79,5.79,0,0,0,668.71,7a4.57,4.57,0,0,0-1.35-2.38Zm-3.61,13.77Z" transform="translate(-29.16 -3)"/><path class="cls-1" d="M664.57,9l-.07,0a.73.73,0,0,1-.12-1,.81.81,0,0,1,.89-.23c.05,0,.11-.15.16-.21l.41-.59a1.41,1.41,0,0,0,.25-.49.78.78,0,0,0-.18-.11,1.93,1.93,0,0,1-.72-.62.72.72,0,0,1,.25-1,.79.79,0,0,1,1,.24l.2.12a1.89,1.89,0,0,1,.71.59c.39.57.29,1.28-.28,2.11l-.4.58A2.36,2.36,0,0,1,666,9,1.39,1.39,0,0,1,664.57,9Zm1.93-4.11Z" transform="translate(-29.16 -3)"/><path class="cls-1" d="M643.36,30.63a.53.53,0,0,1-.14-.12,1.13,1.13,0,0,1-.29-1.07,17.2,17.2,0,0,1,1-3.15,93.53,93.53,0,0,1,5-11.5.79.79,0,0,1,.49-.38.78.78,0,0,1,.61.1,20.86,20.86,0,0,0,3.56,1.72.74.74,0,0,1,.44,1,.77.77,0,0,1-1,.42,22,22,0,0,1-3.12-1.43,99.36,99.36,0,0,0-4.52,10.61,18.49,18.49,0,0,0-.84,2.58,18.52,18.52,0,0,1,2.2.44,13.51,13.51,0,0,0,2.21.43.75.75,0,0,1,.76.74.76.76,0,0,1-.78.74,13.38,13.38,0,0,1-2.57-.47,13.51,13.51,0,0,0-2.21-.43A1.35,1.35,0,0,1,643.36,30.63Z" transform="translate(-29.16 -3)"/><path class="cls-1" d="M645.61,28.78a1.67,1.67,0,0,1-.28-.25.72.72,0,0,1,.1-1l.05,0a2.35,2.35,0,0,1,.67-.92,1.53,1.53,0,0,1,1.89,0,1.33,1.33,0,0,1,.22,1.73A1.87,1.87,0,0,1,647,29,1.89,1.89,0,0,1,645.61,28.78Z" transform="translate(-29.16 -3)"/><path class="cls-1" d="M64,182.1a1.84,1.84,0,0,1-.63-.64,1.8,1.8,0,0,1,0-1.46c.24-.68.5-1.37.77-2.06.4-1,.81-2.12,1.15-3.18.16-.48.27-1,.4-1.57a8,8,0,0,1,1.6-3.9,10.46,10.46,0,0,1,3-2c.55-.28,1.08-.55,1.53-.84,1.28-.82,3.52-2.5,4.11-4.5.25-.85.82-2.33,1.84-2.67a1.43,1.43,0,0,1,1.29.2h0a4.64,4.64,0,0,1,1.54,2.55,5.64,5.64,0,0,1-.42,3.78,9.13,9.13,0,0,1-2.09,2.7c-.3.28-.61.52-.91.75a3.36,3.36,0,0,0-1.54,1.91s0,.06,0,.09a6.26,6.26,0,0,0,1.13,0c.23,0,.41,0,.56,0a22.84,22.84,0,0,1,3.09.24c1.37.19,3.29.63,4.27,2.13a2.85,2.85,0,0,1,0,3,2.51,2.51,0,0,1-.75.77,2.81,2.81,0,0,1,.48,2.53,2.94,2.94,0,0,1-1.6,1.75,3.88,3.88,0,0,1,.3.48,2.37,2.37,0,0,1,.08,1.93,2.46,2.46,0,0,1-1.55,1.34,2.55,2.55,0,0,1-.66.12,2.82,2.82,0,0,1,0,1.7,1.75,1.75,0,0,1-1.12,1.08,2.91,2.91,0,0,1-1.58-.06,46.81,46.81,0,0,1-14.2-6.05ZM78.4,160.46c-.12-.08-.18-.06-.2-.05-.28.09-.75.79-1.08,1.89-.66,2.24-2.86,4-4.59,5.14-.51.33-1.09.62-1.64.91a9.47,9.47,0,0,0-2.64,1.71,7.31,7.31,0,0,0-1.32,3.37c-.12.56-.25,1.15-.42,1.68-.36,1.08-.77,2.17-1.18,3.23-.26.68-.52,1.36-.76,2,0,.14-.16.46-.1.58a1,1,0,0,0,.31.24,45.61,45.61,0,0,0,13.83,5.9,1.81,1.81,0,0,0,.9.07.48.48,0,0,0,.35-.35,2.23,2.23,0,0,0-.4-1.8.56.56,0,0,1,.07-.73.6.6,0,0,1,.75-.09,1.37,1.37,0,0,0,1.81-.6,1.18,1.18,0,0,0-.06-1,1.37,1.37,0,0,0-.8-.72.58.58,0,0,1-.41-.66.6.6,0,0,1,.64-.47,1.85,1.85,0,0,0,1.81-1.2,1.76,1.76,0,0,0-.81-2,.55.55,0,0,1-.28-.67.59.59,0,0,1,.61-.41,1,1,0,0,0,.87-.52,1.71,1.71,0,0,0,0-1.76c-.55-.84-1.63-1.35-3.43-1.61a23.77,23.77,0,0,0-2.93-.22l-.41,0a5.75,5.75,0,0,1-1.55,0h0a1.06,1.06,0,0,1-.86-.63,1.37,1.37,0,0,1,0-.85,4.4,4.4,0,0,1,2-2.56,8.81,8.81,0,0,0,.83-.68,7.92,7.92,0,0,0,1.83-2.35,4.47,4.47,0,0,0,.34-3,3.52,3.52,0,0,0-1.06-1.87Zm-2.83,10.81Z" transform="translate(-29.16 -3)"/><path class="cls-1" d="M76.22,164l0,0a.57.57,0,0,1-.1-.81.62.62,0,0,1,.7-.18l.13-.17.32-.46a1.43,1.43,0,0,0,.2-.39l-.14-.09a1.38,1.38,0,0,1-.57-.48.57.57,0,0,1,.19-.8.63.63,0,0,1,.83.19l.16.09a1.67,1.67,0,0,1,.56.47c.3.44.22,1-.23,1.65l-.31.46a2,2,0,0,1-.54.55A1.06,1.06,0,0,1,76.22,164Zm1.52-3.23Z" transform="translate(-29.16 -3)"/><path class="cls-1" d="M59.57,180.93l-.11-.09a.88.88,0,0,1-.23-.84,13.47,13.47,0,0,1,.76-2.48,74.39,74.39,0,0,1,3.91-9,.62.62,0,0,1,.38-.29.65.65,0,0,1,.49.07,16,16,0,0,0,2.79,1.36.57.57,0,0,1,.35.75.62.62,0,0,1-.78.33,16.49,16.49,0,0,1-2.45-1.13,77.87,77.87,0,0,0-3.55,8.34,14.88,14.88,0,0,0-.66,2,13.25,13.25,0,0,1,1.73.35,10.35,10.35,0,0,0,1.73.33.59.59,0,0,1,.6.59.59.59,0,0,1-.61.57,9.83,9.83,0,0,1-2-.37,10.54,10.54,0,0,0-1.73-.33A1.06,1.06,0,0,1,59.57,180.93Z" transform="translate(-29.16 -3)"/><path class="cls-1" d="M61.34,179.48a1.5,1.5,0,0,1-.23-.2.58.58,0,0,1,.08-.82l.05,0a1.77,1.77,0,0,1,.52-.72,1.2,1.2,0,0,1,1.48,0,1,1,0,0,1,.18,1.36,1.61,1.61,0,0,1-2.08.43Z" transform="translate(-29.16 -3)"/><path class="cls-1" d="M503.91,338a2.11,2.11,0,0,1-1-.21,2,2,0,0,1-.91-1.36c-.22-.76-.43-1.55-.64-2.34-.32-1.19-.65-2.42-1-3.59a17.63,17.63,0,0,0-.67-1.67,8.76,8.76,0,0,1-1.08-4.51,10.76,10.76,0,0,1,1.43-3.59,16.43,16.43,0,0,0,.84-1.68c.63-1.52,1.58-4.39.81-6.57-.32-.92-.76-2.61-.06-3.53a1.53,1.53,0,0,1,1.3-.6h0a5.41,5.41,0,0,1,3.06,1.39,6.43,6.43,0,0,1,2.09,3.71,9.78,9.78,0,0,1-.14,3.7c-.1.45-.23.85-.35,1.24a3.57,3.57,0,0,0-.15,2.66,1,1,0,0,0,0,.1,6.49,6.49,0,0,0,1-.72,4.52,4.52,0,0,1,.48-.37,26.94,26.94,0,0,1,3-1.65c1.37-.64,3.41-1.4,5.28-.61a3.26,3.26,0,0,1,1.91,2.73,2.41,2.41,0,0,1-.18,1.15,3.28,3.28,0,0,1,2.09,2,3.11,3.11,0,0,1-.32,2.56,3.42,3.42,0,0,1,.59.26,2.69,2.69,0,0,1,1.33,1.7,2.74,2.74,0,0,1-1.06,2.66,3.24,3.24,0,0,1,1.11,1.54,1.77,1.77,0,0,1-.32,1.66,3,3,0,0,1-1.47.9A52.75,52.75,0,0,1,504,338Zm-1-28.37c-.17,0-.2.05-.22.07a3.47,3.47,0,0,0,.25,2.37c.85,2.44,0,5.4-.83,7.45a19.14,19.14,0,0,1-.91,1.81,9.74,9.74,0,0,0-1.28,3.15,7.92,7.92,0,0,0,1,3.86c.25.59.52,1.2.71,1.78.38,1.2.71,2.45,1,3.65.21.79.42,1.56.64,2.32,0,.15.15.51.28.58a1.18,1.18,0,0,0,.44,0,51.15,51.15,0,0,0,16.45-2.93,2,2,0,0,0,.87-.48.52.52,0,0,0,.09-.53,2.63,2.63,0,0,0-1.54-1.4.64.64,0,0,1-.42-.7.66.66,0,0,1,.63-.54,1.34,1.34,0,0,0,1-.54,1.26,1.26,0,0,0,.29-1.09,1.4,1.4,0,0,0-.7-.88,1.63,1.63,0,0,0-1.21-.17.69.69,0,0,1-.8-.36.63.63,0,0,1,.27-.81,1.92,1.92,0,0,0,.87-2.19,2.07,2.07,0,0,0-2-1.3.66.66,0,0,1-.69-.44.63.63,0,0,1,.29-.75,1,1,0,0,0,.46-1,2,2,0,0,0-1.11-1.64c-1-.43-2.37-.24-4.17.6a24.88,24.88,0,0,0-2.82,1.55l-.35.29a6.24,6.24,0,0,1-1.4.94h0a1.22,1.22,0,0,1-1.19-.06,1.58,1.58,0,0,1-.58-.77,4.69,4.69,0,0,1,.12-3.5c.12-.36.23-.73.32-1.12a8.61,8.61,0,0,0,.13-3.24,5.12,5.12,0,0,0-1.66-3,4.32,4.32,0,0,0-2.19-1.07Zm4.46,11.56Z" transform="translate(-29.16 -3)"/><path class="cls-1" d="M503.22,314.13h-.07a.66.66,0,0,1-.62-.69.65.65,0,0,1,.52-.58V312a1.15,1.15,0,0,0-.07-.47h-.18a1.87,1.87,0,0,1-.84-.1.63.63,0,0,1-.34-.85.69.69,0,0,1,.88-.33h.2a1.69,1.69,0,0,1,.81.08,1.61,1.61,0,0,1,.88,1.64v.61a1.86,1.86,0,0,1-.13.83A1.16,1.16,0,0,1,503.22,314.13Zm-.72-3.85Z" transform="translate(-29.16 -3)"/><path class="cls-1" d="M499.1,339.59l-.17,0a1.06,1.06,0,0,1-.75-.63,14.68,14.68,0,0,1-.92-2.71,79.36,79.36,0,0,1-2.32-10.58.65.65,0,0,1,.15-.5.7.7,0,0,1,.49-.22,18.83,18.83,0,0,0,3.43-.44.67.67,0,0,1,.81.47.64.64,0,0,1-.5.77,18.38,18.38,0,0,1-3,.44,84.24,84.24,0,0,0,2.2,9.74,15.24,15.24,0,0,0,.71,2.23,17.18,17.18,0,0,1,1.81-.71,12.06,12.06,0,0,0,1.79-.74.69.69,0,0,1,.93.17.62.62,0,0,1-.18.89,10.62,10.62,0,0,1-2.08.88,11.65,11.65,0,0,0-1.8.74A1.15,1.15,0,0,1,499.1,339.59Z" transform="translate(-29.16 -3)"/><path class="cls-1" d="M499.76,337.2a1.24,1.24,0,0,1-.33,0,.64.64,0,0,1-.46-.8l0-.05a2,2,0,0,1,0-1,1.28,1.28,0,0,1,1.33-.91,1.2,1.2,0,0,1,1.05,1.13,1.55,1.55,0,0,1-.49,1.14A1.63,1.63,0,0,1,499.76,337.2Z" transform="translate(-29.16 -3)"/><path class="cls-1" d="M1082.68,53.84a2,2,0,0,1-1,.17,2.18,2.18,0,0,1-1.38-.92c-.51-.63-1-1.28-1.52-1.93-.77-1-1.56-2-2.37-2.95-.36-.43-.81-.85-1.27-1.3a9.07,9.07,0,0,1-2.79-3.78,10.26,10.26,0,0,1-.11-3.83c.06-.66.12-1.29.12-1.87,0-1.64-.29-4.63-1.86-6.37-.67-.74-1.75-2.14-1.46-3.25a1.48,1.48,0,0,1,1-1h0a5.59,5.59,0,0,1,3.39.16,6.8,6.8,0,0,1,3.4,2.67,10,10,0,0,1,1.33,3.48c.09.44.13.86.18,1.27a3.57,3.57,0,0,0,.91,2.52.46.46,0,0,1,.07.07,5.39,5.39,0,0,0,.65-1,5.82,5.82,0,0,1,.3-.51,25,25,0,0,1,2.1-2.61c1-1.1,2.6-2.54,4.64-2.5a3.4,3.4,0,0,1,2.85,1.82,2.4,2.4,0,0,1,.29,1.13,3.47,3.47,0,0,1,2.74,1.11,3.14,3.14,0,0,1,.72,2.48,3.43,3.43,0,0,1,.64,0,2.8,2.8,0,0,1,1.91,1.09,2.56,2.56,0,0,1,.36,2.18,3.08,3.08,0,0,1-.29.67,3.36,3.36,0,0,1,1.64,1,1.8,1.8,0,0,1,.37,1.65,3,3,0,0,1-1,1.37,50.79,50.79,0,0,1-14.43,9ZM1070.51,28c-.15.06-.17.12-.17.15-.08.3.3,1.14,1.17,2.1,1.75,1.94,2.16,5,2.18,7.19a16.9,16.9,0,0,1-.12,2,9.51,9.51,0,0,0,.07,3.38,8.1,8.1,0,0,0,2.44,3.21c.47.45,1,.92,1.36,1.39.84,1,1.64,2,2.41,3,.5.65,1,1.29,1.5,1.91.11.12.35.42.49.44a1.31,1.31,0,0,0,.43-.13,49.8,49.8,0,0,0,14-8.72,2.06,2.06,0,0,0,.62-.76.57.57,0,0,0-.13-.53,2.76,2.76,0,0,0-2-.73.66.66,0,0,1-.67-.5.63.63,0,0,1,.37-.72,1.32,1.32,0,0,0,.68-.85,1.28,1.28,0,0,0-.16-1.12,1.47,1.47,0,0,0-1-.55,1.61,1.61,0,0,0-1.18.27.68.68,0,0,1-.89,0,.62.62,0,0,1-.07-.84,1.91,1.91,0,0,0-.06-2.34,2.1,2.1,0,0,0-2.38-.46.7.7,0,0,1-.82-.16.63.63,0,0,1,0-.8,1,1,0,0,0,0-1.08,2,2,0,0,0-1.67-1.11c-1.14,0-2.29.63-3.62,2.07a23.38,23.38,0,0,0-2,2.47l-.22.39a5.54,5.54,0,0,1-.92,1.38h0a1.23,1.23,0,0,1-1.12.39,1.77,1.77,0,0,1-.84-.51,4.76,4.76,0,0,1-1.28-3.28,9.55,9.55,0,0,0-.15-1.15,8.77,8.77,0,0,0-1.16-3,5.38,5.38,0,0,0-2.72-2.14,4.34,4.34,0,0,0-2.44-.18Zm8.71,9.06Z" transform="translate(-29.16 -3)"/><path class="cls-1" d="M1072.58,32l-.07,0a.68.68,0,0,1-.85-.41.64.64,0,0,1,.25-.72c0-.06-.06-.15-.09-.22l-.25-.56a1.17,1.17,0,0,0-.25-.41,1.22,1.22,0,0,0-.17.07,1.62,1.62,0,0,1-.81.22.66.66,0,0,1-.65-.66.67.67,0,0,1,.68-.63l.19-.08a1.64,1.64,0,0,1,.78-.21c.62,0,1.11.4,1.46,1.19l.25.56a1.85,1.85,0,0,1,.21.81A1.1,1.1,0,0,1,1072.58,32Zm-2.2-3.3Z" transform="translate(-29.16 -3)"/><path class="cls-1" d="M1078.87,57.08l-.16,0a1.06,1.06,0,0,1-1-.3,15.15,15.15,0,0,1-1.93-2.18,83.59,83.59,0,0,1-6.34-8.93.63.63,0,0,1,0-.52.64.64,0,0,1,.36-.38,17.47,17.47,0,0,0,3-1.67.7.7,0,0,1,.94.15.63.63,0,0,1-.15.9,18.69,18.69,0,0,1-2.57,1.49,88.49,88.49,0,0,0,5.89,8.19,16,16,0,0,0,1.56,1.81,13.8,13.8,0,0,1,1.38-1.32A10.82,10.82,0,0,0,1081.2,53a.68.68,0,0,1,.93-.18.63.63,0,0,1,.19.89,10.61,10.61,0,0,1-1.58,1.57,11,11,0,0,0-1.37,1.34A1.11,1.11,0,0,1,1078.87,57.08Z" transform="translate(-29.16 -3)"/><path class="cls-1" d="M1078.53,54.63a1.16,1.16,0,0,1-.32.08.66.66,0,0,1-.74-.57.07.07,0,0,1,0,0,2.07,2.07,0,0,1-.37-.9,1.22,1.22,0,0,1,.87-1.33,1.24,1.24,0,0,1,1.42.66,1.54,1.54,0,0,1,0,1.23A1.57,1.57,0,0,1,1078.53,54.63Z" transform="translate(-29.16 -3)"/></svg>