<?xml version="1.0" standalone="no"?>
<svg xmlns:xlink="http://www.w3.org/1999/xlink" id="wave" style="transform:rotate(180deg); transition: 0.3s" viewBox="0 0 1440 260" version="1.1" xmlns="http://www.w3.org/2000/svg"><defs><linearGradient id="sw-gradient-0" x1="0" x2="0" y1="1" y2="0"><stop stop-color="rgba(69, 72, 145, 0.53)" offset="0%"/><stop stop-color="rgba(69, 72, 145, 0.52)" offset="100%"/></linearGradient></defs><path style="transform:translate(0, 0px); opacity:1" fill="url(#sw-gradient-0)" d="M0,104L40,112.7C80,121,160,139,240,134.3C320,130,400,104,480,104C560,104,640,130,720,134.3C800,139,880,121,960,104C1040,87,1120,69,1200,60.7C1280,52,1360,52,1440,47.7C1520,43,1600,35,1680,65C1760,95,1840,165,1920,182C2000,199,2080,165,2160,147.3C2240,130,2320,130,2400,130C2480,130,2560,130,2640,134.3C2720,139,2800,147,2880,156C2960,165,3040,173,3120,147.3C3200,121,3280,61,3360,65C3440,69,3520,139,3600,156C3680,173,3760,139,3840,130C3920,121,4000,139,4080,121.3C4160,104,4240,52,4320,52C4400,52,4480,104,4560,117C4640,130,4720,104,4800,99.7C4880,95,4960,113,5040,121.3C5120,130,5200,130,5280,112.7C5360,95,5440,61,5520,56.3C5600,52,5680,78,5720,91L5760,104L5760,260L5720,260C5680,260,5600,260,5520,260C5440,260,5360,260,5280,260C5200,260,5120,260,5040,260C4960,260,4880,260,4800,260C4720,260,4640,260,4560,260C4480,260,4400,260,4320,260C4240,260,4160,260,4080,260C4000,260,3920,260,3840,260C3760,260,3680,260,3600,260C3520,260,3440,260,3360,260C3280,260,3200,260,3120,260C3040,260,2960,260,2880,260C2800,260,2720,260,2640,260C2560,260,2480,260,2400,260C2320,260,2240,260,2160,260C2080,260,2000,260,1920,260C1840,260,1760,260,1680,260C1600,260,1520,260,1440,260C1360,260,1280,260,1200,260C1120,260,1040,260,960,260C880,260,800,260,720,260C640,260,560,260,480,260C400,260,320,260,240,260C160,260,80,260,40,260L0,260Z"/></svg>