<svg id="wave" style="transform:rotate(180deg); transition: 0.3s" viewBox="0 0 1440 170" version="1.1" xmlns="http://www.w3.org/2000/svg"><defs><linearGradient id="sw-gradient-0" x1="0" x2="0" y1="1" y2="0"><stop stop-color="rgba(17, 34, 64, 1)" offset="0%"></stop><stop stop-color="rgba(17, 34, 64, 1)" offset="100%"></stop></linearGradient></defs><path style="transform:translate(0, 0px); opacity:1" fill="url(#sw-gradient-0)" d="M0,17L80,28.3C160,40,320,62,480,62.3C640,62,800,40,960,39.7C1120,40,1280,62,1440,59.5C1600,57,1760,28,1920,17C2080,6,2240,11,2400,19.8C2560,28,2720,40,2880,62.3C3040,85,3200,119,3360,116.2C3520,113,3680,74,3840,62.3C4000,51,4160,68,4320,73.7C4480,79,4640,74,4800,59.5C4960,45,5120,23,5280,36.8C5440,51,5600,102,5760,104.8C5920,108,6080,62,6240,59.5C6400,57,6560,96,6720,116.2C6880,136,7040,136,7200,136C7360,136,7520,136,7680,113.3C7840,91,8000,45,8160,31.2C8320,17,8480,34,8640,42.5C8800,51,8960,51,9120,53.8C9280,57,9440,62,9600,59.5C9760,57,9920,45,10080,45.3C10240,45,10400,57,10560,59.5C10720,62,10880,57,11040,53.8C11200,51,11360,51,11440,51L11520,51L11520,170L11440,170C11360,170,11200,170,11040,170C10880,170,10720,170,10560,170C10400,170,10240,170,10080,170C9920,170,9760,170,9600,170C9440,170,9280,170,9120,170C8960,170,8800,170,8640,170C8480,170,8320,170,8160,170C8000,170,7840,170,7680,170C7520,170,7360,170,7200,170C7040,170,6880,170,6720,170C6560,170,6400,170,6240,170C6080,170,5920,170,5760,170C5600,170,5440,170,5280,170C5120,170,4960,170,4800,170C4640,170,4480,170,4320,170C4160,170,4000,170,3840,170C3680,170,3520,170,3360,170C3200,170,3040,170,2880,170C2720,170,2560,170,2400,170C2240,170,2080,170,1920,170C1760,170,1600,170,1440,170C1280,170,1120,170,960,170C800,170,640,170,480,170C320,170,160,170,80,170L0,170Z"></path></svg>