<svg id="wave" style="transform:rotate(180deg); transition: 0.3s" viewBox="0 0 1440 200" version="1.1" xmlns="http://www.w3.org/2000/svg"><defs><linearGradient id="sw-gradient-0" x1="0" x2="0" y1="1" y2="0"><stop stop-color="rgba(51, 57, 120, 1)" offset="0%"></stop><stop stop-color="rgba(51, 57, 120, 1)" offset="100%"></stop></linearGradient></defs><path style="transform:translate(0, 0px); opacity:1" fill="url(#sw-gradient-0)" d="M0,100L80,86.7C160,73,320,47,480,53.3C640,60,800,100,960,103.3C1120,107,1280,73,1440,60C1600,47,1760,53,1920,50C2080,47,2240,33,2400,40C2560,47,2720,73,2880,73.3C3040,73,3200,47,3360,33.3C3520,20,3680,20,3840,40C4000,60,4160,100,4320,126.7C4480,153,4640,167,4800,146.7C4960,127,5120,73,5280,46.7C5440,20,5600,20,5760,40C5920,60,6080,100,6240,123.3C6400,147,6560,153,6720,150C6880,147,7040,133,7200,133.3C7360,133,7520,147,7680,146.7C7840,147,8000,133,8160,116.7C8320,100,8480,80,8640,60C8800,40,8960,20,9120,33.3C9280,47,9440,93,9600,113.3C9760,133,9920,127,10080,133.3C10240,140,10400,160,10560,146.7C10720,133,10880,87,11040,80C11200,73,11360,107,11440,123.3L11520,140L11520,200L11440,200C11360,200,11200,200,11040,200C10880,200,10720,200,10560,200C10400,200,10240,200,10080,200C9920,200,9760,200,9600,200C9440,200,9280,200,9120,200C8960,200,8800,200,8640,200C8480,200,8320,200,8160,200C8000,200,7840,200,7680,200C7520,200,7360,200,7200,200C7040,200,6880,200,6720,200C6560,200,6400,200,6240,200C6080,200,5920,200,5760,200C5600,200,5440,200,5280,200C5120,200,4960,200,4800,200C4640,200,4480,200,4320,200C4160,200,4000,200,3840,200C3680,200,3520,200,3360,200C3200,200,3040,200,2880,200C2720,200,2560,200,2400,200C2240,200,2080,200,1920,200C1760,200,1600,200,1440,200C1280,200,1120,200,960,200C800,200,640,200,480,200C320,200,160,200,80,200L0,200Z"></path></svg>