<?xml version="1.0" standalone="no"?>
<svg xmlns:xlink="http://www.w3.org/1999/xlink" id="wave" style="transform:rotate(180deg); transition: 0.3s" viewBox="0 0 1440 120" version="1.1" xmlns="http://www.w3.org/2000/svg"><defs><linearGradient id="sw-gradient-0" x1="0" x2="0" y1="1" y2="0"><stop stop-color="rgba(69, 72, 145, 0.53)" offset="0%"/><stop stop-color="rgba(69, 72, 145, 0.52)" offset="100%"/></linearGradient></defs><path style="transform:translate(0, 0px); opacity:1" fill="url(#sw-gradient-0)" d="M0,72L48,62C96,52,192,32,288,36C384,40,480,68,576,66C672,64,768,32,864,26C960,20,1056,40,1152,40C1248,40,1344,20,1440,22C1536,24,1632,48,1728,64C1824,80,1920,88,2016,90C2112,92,2208,88,2304,76C2400,64,2496,44,2592,38C2688,32,2784,40,2880,40C2976,40,3072,32,3168,40C3264,48,3360,72,3456,78C3552,84,3648,72,3744,58C3840,44,3936,28,4032,20C4128,12,4224,12,4320,16C4416,20,4512,28,4608,44C4704,60,4800,84,4896,92C4992,100,5088,92,5184,78C5280,64,5376,44,5472,46C5568,48,5664,72,5760,82C5856,92,5952,88,6048,78C6144,68,6240,52,6336,42C6432,32,6528,28,6624,38C6720,48,6816,72,6864,84L6912,96L6912,120L6864,120C6816,120,6720,120,6624,120C6528,120,6432,120,6336,120C6240,120,6144,120,6048,120C5952,120,5856,120,5760,120C5664,120,5568,120,5472,120C5376,120,5280,120,5184,120C5088,120,4992,120,4896,120C4800,120,4704,120,4608,120C4512,120,4416,120,4320,120C4224,120,4128,120,4032,120C3936,120,3840,120,3744,120C3648,120,3552,120,3456,120C3360,120,3264,120,3168,120C3072,120,2976,120,2880,120C2784,120,2688,120,2592,120C2496,120,2400,120,2304,120C2208,120,2112,120,2016,120C1920,120,1824,120,1728,120C1632,120,1536,120,1440,120C1344,120,1248,120,1152,120C1056,120,960,120,864,120C768,120,672,120,576,120C480,120,384,120,288,120C192,120,96,120,48,120L0,120Z"/></svg>