<?xml version="1.0" standalone="no"?>
<svg xmlns:xlink="http://www.w3.org/1999/xlink" id="wave" style="transform:rotate(0deg); transition: 0.3s" viewBox="0 0 1440 490" version="1.1" xmlns="http://www.w3.org/2000/svg"><defs><linearGradient id="sw-gradient-0" x1="0" x2="0" y1="1" y2="0"><stop stop-color="rgba(70, 63, 136, 1)" offset="0%"/><stop stop-color="rgba(69, 92, 166, 1)" offset="100%"/></linearGradient></defs><path style="transform:translate(0, 0px); opacity:1" fill="url(#sw-gradient-0)" d="M0,392L34.3,383.8C68.6,376,137,359,206,334.8C274.3,310,343,278,411,294C480,310,549,376,617,408.3C685.7,441,754,441,823,432.8C891.4,425,960,408,1029,383.8C1097.1,359,1166,327,1234,277.7C1302.9,229,1371,163,1440,163.3C1508.6,163,1577,229,1646,245C1714.3,261,1783,229,1851,245C1920,261,1989,327,2057,359.3C2125.7,392,2194,392,2263,343C2331.4,294,2400,196,2469,179.7C2537.1,163,2606,229,2674,245C2742.9,261,2811,229,2880,204.2C2948.6,180,3017,163,3086,196C3154.3,229,3223,310,3291,285.8C3360,261,3429,131,3497,65.3C3565.7,0,3634,0,3703,73.5C3771.4,147,3840,294,3909,326.7C3977.1,359,4046,278,4114,269.5C4182.9,261,4251,327,4320,334.8C4388.6,343,4457,294,4526,253.2C4594.3,212,4663,180,4731,138.8C4800,98,4869,49,4903,24.5L4937.1,0L4937.1,490L4902.9,490C4868.6,490,4800,490,4731,490C4662.9,490,4594,490,4526,490C4457.1,490,4389,490,4320,490C4251.4,490,4183,490,4114,490C4045.7,490,3977,490,3909,490C3840,490,3771,490,3703,490C3634.3,490,3566,490,3497,490C3428.6,490,3360,490,3291,490C3222.9,490,3154,490,3086,490C3017.1,490,2949,490,2880,490C2811.4,490,2743,490,2674,490C2605.7,490,2537,490,2469,490C2400,490,2331,490,2263,490C2194.3,490,2126,490,2057,490C1988.6,490,1920,490,1851,490C1782.9,490,1714,490,1646,490C1577.1,490,1509,490,1440,490C1371.4,490,1303,490,1234,490C1165.7,490,1097,490,1029,490C960,490,891,490,823,490C754.3,490,686,490,617,490C548.6,490,480,490,411,490C342.9,490,274,490,206,490C137.1,490,69,490,34,490L0,490Z"/></svg>