<?xml version="1.0" standalone="no"?>
<svg xmlns:xlink="http://www.w3.org/1999/xlink" id="wave" style="transform:rotate(0deg); transition: 0.3s" viewBox="0 0 1440 120" version="1.1" xmlns="http://www.w3.org/2000/svg"><defs><linearGradient id="sw-gradient-0" x1="0" x2="0" y1="1" y2="0"><stop stop-color="rgba(69, 72, 145, 0.53)" offset="0%"/><stop stop-color="rgba(69, 72, 145, 0.52)" offset="100%"/></linearGradient></defs><path style="transform:translate(0, 0px); opacity:1" fill="url(#sw-gradient-0)" d="M0,72L40,62C80,52,160,32,240,36C320,40,400,68,480,66C560,64,640,32,720,26C800,20,880,40,960,40C1040,40,1120,20,1200,22C1280,24,1360,48,1440,64C1520,80,1600,88,1680,90C1760,92,1840,88,1920,76C2000,64,2080,44,2160,38C2240,32,2320,40,2400,40C2480,40,2560,32,2640,40C2720,48,2800,72,2880,78C2960,84,3040,72,3120,58C3200,44,3280,28,3360,20C3440,12,3520,12,3600,16C3680,20,3760,28,3840,44C3920,60,4000,84,4080,92C4160,100,4240,92,4320,78C4400,64,4480,44,4560,46C4640,48,4720,72,4800,82C4880,92,4960,88,5040,78C5120,68,5200,52,5280,42C5360,32,5440,28,5520,38C5600,48,5680,72,5720,84L5760,96L5760,120L5720,120C5680,120,5600,120,5520,120C5440,120,5360,120,5280,120C5200,120,5120,120,5040,120C4960,120,4880,120,4800,120C4720,120,4640,120,4560,120C4480,120,4400,120,4320,120C4240,120,4160,120,4080,120C4000,120,3920,120,3840,120C3760,120,3680,120,3600,120C3520,120,3440,120,3360,120C3280,120,3200,120,3120,120C3040,120,2960,120,2880,120C2800,120,2720,120,2640,120C2560,120,2480,120,2400,120C2320,120,2240,120,2160,120C2080,120,2000,120,1920,120C1840,120,1760,120,1680,120C1600,120,1520,120,1440,120C1360,120,1280,120,1200,120C1120,120,1040,120,960,120C880,120,800,120,720,120C640,120,560,120,480,120C400,120,320,120,240,120C160,120,80,120,40,120L0,120Z"/></svg>