<?xml version="1.0" encoding="iso-8859-1"?>
<!-- Generator: Adobe Illustrator 19.0.0, SVG Export Plug-In . SVG Version: 6.00 Build 0)  -->
<svg version="1.1" id="Capa_1" xmlns="http://www.w3.org/2000/svg" xmlns:xlink="http://www.w3.org/1999/xlink" x="0px" y="0px"
	 viewBox="0 0 512.001 512.001" style="enable-background:new 0 0 512.001 512.001;" xml:space="preserve">
<g>
	<path style="fill:#F0F0FB;" d="M387.971,442.002c5.191-123.684,21.845-358.038-144.67-375.142
		c-1.355-13.15-3.372-23.269-5.647-31.052C230.626,11.75,221.142,10,221.142,10c-27.729,19.41-33.272,70.985-33.272,70.985
		l-99.822,86.512c0,0-47.693,31.61-2.772,86.511l17.191-9.982c1.566,14.314,47.686,37.55,60.932-10.376h46.516
		c3.959,62.024-117.401,66.188-94.057,208.353L387.971,442.002L387.971,442.002z"/>
	<g>
		<path style="fill:#BFBFCF;" d="M243.301,66.86c166.515,17.104,149.861,251.458,144.67,375.142h35.843
			c41.185-153.706,37.596-406.194-186.16-406.194C239.928,43.591,241.945,53.709,243.301,66.86z"/>
		<path style="fill:#BFBFCF;" d="M352.005,442.002H115.858H76.005c-5.5,0-10,4.5-10,10v40c0,5.5,4.5,10,10,10h360
			c5.5,0,10-4.5,10-10v-40c0-5.5-4.5-10-10-10h-12.191h-35.843H352.005z"/>
	</g>
</g>
<path d="M191.973,128.874c-5.508,0-10.001,4.493-10.001,10.001s4.492,10,10.001,10c5.508,0,10-4.492,10-10
	S197.48,128.874,191.973,128.874z"/>
<path d="M436.682,432.036c13.385-54.783,19.345-113.069,16.82-165.532c-3.378-70.178-21.06-126.573-52.553-167.617
	c-35.943-46.842-88.435-71.373-156.093-72.988c-7.851-21.067-18.015-25.016-21.898-25.733c-2.632-0.486-5.354,0.105-7.549,1.642
	c-26.579,18.605-34.925,60.803-36.942,74.095l-96.578,83.698c-3.687,2.636-21.622,16.574-25.247,40.584
	c-2.928,19.392,4.102,39.631,20.895,60.155c3.108,3.799,8.515,4.78,12.761,2.315l8.446-4.904
	c6.835,7.661,18.372,13.564,30.334,14.526c18.622,1.497,33.734-9.083,41.508-28.629h28.691
	c-2.915,13.448-14.378,24.23-32.231,40.038c-30.789,27.264-72.459,64.176-62.682,148.315H76.005c-11.028,0-20,8.972-20,20v40
	c0,11.028,8.972,20,20,20h360c11.028,0,20-8.972,20-20v-40C456.004,441.203,447.394,432.397,436.682,432.036z M385.081,111.063
	c62.463,81.404,56.047,221.913,30.997,320.939H398.41c0.052-1.186,0.104-2.38,0.157-3.583
	c2.796-63.645,6.625-150.808-10.652-224.554c-20.293-86.622-65.896-135.684-135.608-145.956c-0.573-4.238-1.225-8.16-1.938-11.801
	C308.79,48.838,354.071,70.649,385.081,111.063z M228.838,17.965c-0.007-0.036-0.014-0.071-0.021-0.106
	C229.75,18.549,229.333,20.681,228.838,17.965z M180.304,298.661c18.579-16.452,36.26-32.109,39.262-55.04
	c26.615-0.875,47.994-22.799,47.994-49.622c0-5.523-4.477-10-10-10c-5.523,0-10,4.477-10,10c0,16.349-13.301,29.65-29.649,29.65
	h-7.9c-0.059,0-0.115,0-0.172,0h-46.44c-4.497,0-8.441,3.002-9.639,7.336c-3.846,13.915-10.785,21.122-20.626,21.421
	c-6.825,0.205-13.196-2.806-17.066-5.74l7.175-5.064c4.512-3.185,5.588-9.424,2.404-13.936c-3.184-4.512-9.423-5.589-13.936-2.404
	l-14.645,10.336l-9.171,5.325c-9.318-13.36-13.187-25.958-11.509-37.535c2.52-17.398,17.088-27.489,17.187-27.556
	c0.358-0.237,0.7-0.498,1.025-0.779l99.822-86.512c1.905-1.651,3.118-3.972,3.392-6.478c1.291-11.789,7.906-42.917,23.48-59.055
	c0.148,0.215,0.299,0.441,0.454,0.681c1.912,2.954,4.146,7.545,6.235,14.617c0.058,0.224,0.119,0.446,0.191,0.664
	c2.02,7.017,3.891,16.392,5.182,28.916c0.486,4.713,4.212,8.438,8.925,8.922c65.729,6.751,106.997,49.804,126.164,131.62
	c16.648,71.06,12.889,156.632,10.145,219.114c-0.066,1.5-0.131,2.987-0.196,4.461h-16.387v-31.438c0-5.523-4.477-10-10-10
	s-10,4.477-10,10v31.438H124.5C114.857,356.608,149.56,325.885,180.304,298.661z M76.005,492.002v-40l0,0h360c0.018,0-0.018,0,0,0
	c0.017,0-0.018,0,0,0l0,0c0.013,0-0.012,0,0,0c0.02,0-0.02,0,0,0l0,0l0.002,40H76.005z"/>
<path d="M352.005,381.479c5.523,0,10-4.477,10-10v-0.475c0-5.523-4.477-10-10-10s-10,4.477-10,10v0.475
	C342.005,377.002,346.482,381.479,352.005,381.479z"/>
<g>
</g>
<g>
</g>
<g>
</g>
<g>
</g>
<g>
</g>
<g>
</g>
<g>
</g>
<g>
</g>
<g>
</g>
<g>
</g>
<g>
</g>
<g>
</g>
<g>
</g>
<g>
</g>
<g>
</g>
</svg>
